<svg xmlns="http://www.w3.org/2000/svg" width="900" height="260" viewBox="0 0 900 260"><rect width="900" height="260" fill="#0a0e14"/>
<rect x="15" y="0" width="15" height="15" fill="#00e5ff" opacity="0.4"/>
<rect x="60" y="0" width="15" height="15" fill="#7c4dff" opacity="0.37"/>
<rect x="90" y="0" width="15" height="15" fill="#00b8d4" opacity="0.71"/>
<rect x="105" y="0" width="15" height="15" fill="#00b8d4" opacity="0.97"/>
<rect x="150" y="0" width="15" height="15" fill="#1b2433" opacity="0.38"/>
<rect x="165" y="0" width="15" height="15" fill="#ff2bd6" opacity="0.54"/>
<rect x="180" y="0" width="15" height="15" fill="#00b8d4" opacity="0.72"/>
<rect x="225" y="0" width="15" height="15" fill="#7c4dff" opacity="0.59"/>
<rect x="255" y="0" width="15" height="15" fill="#00e5ff" opacity="0.75"/>
<rect x="345" y="0" width="15" height="15" fill="#7c4dff" opacity="0.87"/>
<rect x="375" y="0" width="15" height="15" fill="#1b2433" opacity="0.69"/>
<rect x="420" y="0" width="15" height="15" fill="#00b8d4" opacity="0.43"/>
<rect x="435" y="0" width="15" height="15" fill="#1b2433" opacity="0.45"/>
<rect x="450" y="0" width="15" height="15" fill="#00e5ff" opacity="0.98"/>
<rect x="465" y="0" width="15" height="15" fill="#1b2433" opacity="0.57"/>
<rect x="480" y="0" width="15" height="15" fill="#e6f1ff" opacity="0.73"/>
<rect x="495" y="0" width="15" height="15" fill="#00b8d4" opacity="0.96"/>
<rect x="510" y="0" width="15" height="15" fill="#00b8d4" opacity="0.39"/>
<rect x="540" y="0" width="15" height="15" fill="#e6f1ff" opacity="0.53"/>
<rect x="555" y="0" width="15" height="15" fill="#1b2433" opacity="0.36"/>
<rect x="570" y="0" width="15" height="15" fill="#ff2bd6" opacity="0.75"/>
<rect x="585" y="0" width="15" height="15" fill="#7c4dff" opacity="0.85"/>
<rect x="600" y="0" width="15" height="15" fill="#7c4dff" opacity="0.61"/>
<rect x="630" y="0" width="15" height="15" fill="#ff2bd6" opacity="0.64"/>
<rect x="645" y="0" width="15" height="15" fill="#ff2bd6" opacity="0.88"/>
<rect x="675" y="0" width="15" height="15" fill="#1b2433" opacity="0.99"/>
<rect x="690" y="0" width="15" height="15" fill="#1b2433" opacity="0.97"/>
<rect x="705" y="0" width="15" height="15" fill="#ff2bd6" opacity="0.45"/>
<rect x="720" y="0" width="15" height="15" fill="#00e5ff" opacity="0.67"/>
<rect x="735" y="0" width="15" height="15" fill="#1b2433" opacity="0.53"/>
<rect x="750" y="0" width="15" height="15" fill="#1b2433" opacity="0.75"/>
<rect x="765" y="0" width="15" height="15" fill="#ff2bd6" opacity="0.8"/>
<rect x="780" y="0" width="15" height="15" fill="#00e5ff" opacity="0.65"/>
<rect x="795" y="0" width="15" height="15" fill="#1b2433" opacity="0.61"/>
<rect x="810" y="0" width="15" height="15" fill="#e6f1ff" opacity="0.76"/>
<rect x="825" y="0" width="15" height="15" fill="#00b8d4" opacity="0.99"/>
<rect x="840" y="0" width="15" height="15" fill="#00b8d4" opacity="0.57"/>
<rect x="855" y="0" width="15" height="15" fill="#00e5ff" opacity="0.72"/>
<rect x="870" y="0" width="15" height="15" fill="#1b2433" opacity="0.75"/>
<rect x="885" y="0" width="15" height="15" fill="#7c4dff" opacity="0.75"/>
<rect x="0" y="15" width="15" height="15" fill="#1b2433" opacity="0.97"/>
<rect x="45" y="15" width="15" height="15" fill="#e6f1ff" opacity="1.0"/>
<rect x="90" y="15" width="15" height="15" fill="#00b8d4" opacity="0.84"/>
<rect x="165" y="15" width="15" height="15" fill="#1b2433" opacity="0.45"/>
<rect x="195" y="15" width="15" height="15" fill="#1b2433" opacity="0.99"/>
<rect x="240" y="15" width="15" height="15" fill="#1b2433" opacity="0.94"/>
<rect x="255" y="15" width="15" height="15" fill="#7c4dff" opacity="0.7"/>
<rect x="285" y="15" width="15" height="15" fill="#7c4dff" opacity="0.75"/>
<rect x="330" y="15" width="15" height="15" fill="#7c4dff" opacity="0.88"/>
<rect x="360" y="15" width="15" height="15" fill="#e6f1ff" opacity="0.58"/>
<rect x="375" y="15" width="15" height="15" fill="#00e5ff" opacity="0.86"/>
<rect x="390" y="15" width="15" height="15" fill="#7c4dff" opacity="0.8"/>
<rect x="420" y="15" width="15" height="15" fill="#1b2433" opacity="0.97"/>
<rect x="435" y="15" width="15" height="15" fill="#7c4dff" opacity="0.42"/>
<rect x="450" y="15" width="15" height="15" fill="#1b2433" opacity="0.48"/>
<rect x="510" y="15" width="15" height="15" fill="#1b2433" opacity="0.87"/>
<rect x="525" y="15" width="15" height="15" fill="#00b8d4" opacity="0.94"/>
<rect x="570" y="15" width="15" height="15" fill="#ff2bd6" opacity="0.63"/>
<rect x="585" y="15" width="15" height="15" fill="#00b8d4" opacity="0.87"/>
<rect x="615" y="15" width="15" height="15" fill="#1b2433" opacity="0.83"/>
<rect x="630" y="15" width="15" height="15" fill="#ff2bd6" opacity="0.46"/>
<rect x="645" y="15" width="15" height="15" fill="#ff2bd6" opacity="0.73"/>
<rect x="660" y="15" width="15" height="15" fill="#ff2bd6" opacity="0.75"/>
<rect x="675" y="15" width="15" height="15" fill="#e6f1ff" opacity="0.78"/>
<rect x="690" y="15" width="15" height="15" fill="#ff2bd6" opacity="0.36"/>
<rect x="705" y="15" width="15" height="15" fill="#00b8d4" opacity="0.69"/>
<rect x="735" y="15" width="15" height="15" fill="#7c4dff" opacity="0.89"/>
<rect x="750" y="15" width="15" height="15" fill="#1b2433" opacity="0.49"/>
<rect x="765" y="15" width="15" height="15" fill="#1b2433" opacity="0.52"/>
<rect x="780" y="15" width="15" height="15" fill="#ff2bd6" opacity="0.39"/>
<rect x="795" y="15" width="15" height="15" fill="#e6f1ff" opacity="0.78"/>
<rect x="810" y="15" width="15" height="15" fill="#1b2433" opacity="0.89"/>
<rect x="825" y="15" width="15" height="15" fill="#ff2bd6" opacity="0.7"/>
<rect x="840" y="15" width="15" height="15" fill="#00e5ff" opacity="0.92"/>
<rect x="855" y="15" width="15" height="15" fill="#00e5ff" opacity="0.85"/>
<rect x="870" y="15" width="15" height="15" fill="#ff2bd6" opacity="0.66"/>
<rect x="885" y="15" width="15" height="15" fill="#00e5ff" opacity="0.56"/>
<rect x="45" y="30" width="15" height="15" fill="#00e5ff" opacity="0.51"/>
<rect x="330" y="30" width="15" height="15" fill="#7c4dff" opacity="0.9"/>
<rect x="345" y="30" width="15" height="15" fill="#00b8d4" opacity="0.61"/>
<rect x="360" y="30" width="15" height="15" fill="#7c4dff" opacity="0.63"/>
<rect x="375" y="30" width="15" height="15" fill="#1b2433" opacity="0.86"/>
<rect x="405" y="30" width="15" height="15" fill="#1b2433" opacity="0.44"/>
<rect x="450" y="30" width="15" height="15" fill="#00b8d4" opacity="0.61"/>
<rect x="465" y="30" width="15" height="15" fill="#7c4dff" opacity="0.45"/>
<rect x="480" y="30" width="15" height="15" fill="#1b2433" opacity="0.57"/>
<rect x="495" y="30" width="15" height="15" fill="#1b2433" opacity="0.41"/>
<rect x="510" y="30" width="15" height="15" fill="#1b2433" opacity="0.71"/>
<rect x="525" y="30" width="15" height="15" fill="#00e5ff" opacity="0.6"/>
<rect x="540" y="30" width="15" height="15" fill="#1b2433" opacity="0.68"/>
<rect x="555" y="30" width="15" height="15" fill="#7c4dff" opacity="0.98"/>
<rect x="570" y="30" width="15" height="15" fill="#1b2433" opacity="0.53"/>
<rect x="600" y="30" width="15" height="15" fill="#ff2bd6" opacity="0.88"/>
<rect x="630" y="30" width="15" height="15" fill="#1b2433" opacity="0.61"/>
<rect x="645" y="30" width="15" height="15" fill="#e6f1ff" opacity="0.81"/>
<rect x="660" y="30" width="15" height="15" fill="#00e5ff" opacity="0.87"/>
<rect x="675" y="30" width="15" height="15" fill="#00b8d4" opacity="0.52"/>
<rect x="690" y="30" width="15" height="15" fill="#00b8d4" opacity="0.87"/>
<rect x="705" y="30" width="15" height="15" fill="#7c4dff" opacity="0.39"/>
<rect x="735" y="30" width="15" height="15" fill="#1b2433" opacity="1.0"/>
<rect x="750" y="30" width="15" height="15" fill="#1b2433" opacity="0.75"/>
<rect x="765" y="30" width="15" height="15" fill="#7c4dff" opacity="0.96"/>
<rect x="795" y="30" width="15" height="15" fill="#ff2bd6" opacity="0.48"/>
<rect x="810" y="30" width="15" height="15" fill="#1b2433" opacity="0.7"/>
<rect x="825" y="30" width="15" height="15" fill="#e6f1ff" opacity="0.68"/>
<rect x="840" y="30" width="15" height="15" fill="#1b2433" opacity="0.87"/>
<rect x="870" y="30" width="15" height="15" fill="#00e5ff" opacity="0.83"/>
<rect x="885" y="30" width="15" height="15" fill="#7c4dff" opacity="0.68"/>
<rect x="135" y="45" width="15" height="15" fill="#7c4dff" opacity="0.57"/>
<rect x="210" y="45" width="15" height="15" fill="#00e5ff" opacity="0.89"/>
<rect x="225" y="45" width="15" height="15" fill="#1b2433" opacity="0.63"/>
<rect x="240" y="45" width="15" height="15" fill="#1b2433" opacity="0.92"/>
<rect x="270" y="45" width="15" height="15" fill="#7c4dff" opacity="0.8"/>
<rect x="285" y="45" width="15" height="15" fill="#ff2bd6" opacity="0.45"/>
<rect x="315" y="45" width="15" height="15" fill="#1b2433" opacity="0.98"/>
<rect x="345" y="45" width="15" height="15" fill="#1b2433" opacity="0.49"/>
<rect x="360" y="45" width="15" height="15" fill="#1b2433" opacity="0.6"/>
<rect x="375" y="45" width="15" height="15" fill="#7c4dff" opacity="0.51"/>
<rect x="405" y="45" width="15" height="15" fill="#00b8d4" opacity="0.44"/>
<rect x="435" y="45" width="15" height="15" fill="#1b2433" opacity="0.55"/>
<rect x="450" y="45" width="15" height="15" fill="#ff2bd6" opacity="0.78"/>
<rect x="495" y="45" width="15" height="15" fill="#1b2433" opacity="0.82"/>
<rect x="510" y="45" width="15" height="15" fill="#1b2433" opacity="0.82"/>
<rect x="525" y="45" width="15" height="15" fill="#00e5ff" opacity="0.89"/>
<rect x="555" y="45" width="15" height="15" fill="#1b2433" opacity="0.83"/>
<rect x="585" y="45" width="15" height="15" fill="#00e5ff" opacity="0.89"/>
<rect x="600" y="45" width="15" height="15" fill="#7c4dff" opacity="0.41"/>
<rect x="615" y="45" width="15" height="15" fill="#1b2433" opacity="0.97"/>
<rect x="630" y="45" width="15" height="15" fill="#e6f1ff" opacity="0.71"/>
<rect x="645" y="45" width="15" height="15" fill="#7c4dff" opacity="0.67"/>
<rect x="660" y="45" width="15" height="15" fill="#00b8d4" opacity="0.84"/>
<rect x="675" y="45" width="15" height="15" fill="#00b8d4" opacity="0.78"/>
<rect x="690" y="45" width="15" height="15" fill="#e6f1ff" opacity="0.51"/>
<rect x="705" y="45" width="15" height="15" fill="#1b2433" opacity="0.5"/>
<rect x="720" y="45" width="15" height="15" fill="#7c4dff" opacity="0.83"/>
<rect x="750" y="45" width="15" height="15" fill="#1b2433" opacity="0.4"/>
<rect x="780" y="45" width="15" height="15" fill="#00e5ff" opacity="0.75"/>
<rect x="795" y="45" width="15" height="15" fill="#00b8d4" opacity="0.74"/>
<rect x="810" y="45" width="15" height="15" fill="#1b2433" opacity="0.75"/>
<rect x="825" y="45" width="15" height="15" fill="#e6f1ff" opacity="0.39"/>
<rect x="840" y="45" width="15" height="15" fill="#00b8d4" opacity="0.8"/>
<rect x="855" y="45" width="15" height="15" fill="#1b2433" opacity="0.81"/>
<rect x="870" y="45" width="15" height="15" fill="#e6f1ff" opacity="0.65"/>
<rect x="885" y="45" width="15" height="15" fill="#7c4dff" opacity="0.55"/>
<rect x="0" y="60" width="15" height="15" fill="#e6f1ff" opacity="0.36"/>
<rect x="90" y="60" width="15" height="15" fill="#7c4dff" opacity="0.4"/>
<rect x="105" y="60" width="15" height="15" fill="#1b2433" opacity="0.97"/>
<rect x="120" y="60" width="15" height="15" fill="#1b2433" opacity="0.93"/>
<rect x="150" y="60" width="15" height="15" fill="#e6f1ff" opacity="0.61"/>
<rect x="165" y="60" width="15" height="15" fill="#e6f1ff" opacity="0.79"/>
<rect x="240" y="60" width="15" height="15" fill="#1b2433" opacity="0.35"/>
<rect x="285" y="60" width="15" height="15" fill="#7c4dff" opacity="0.81"/>
<rect x="315" y="60" width="15" height="15" fill="#1b2433" opacity="0.39"/>
<rect x="330" y="60" width="15" height="15" fill="#00b8d4" opacity="0.58"/>
<rect x="345" y="60" width="15" height="15" fill="#1b2433" opacity="0.91"/>
<rect x="360" y="60" width="15" height="15" fill="#00e5ff" opacity="0.89"/>
<rect x="375" y="60" width="15" height="15" fill="#ff2bd6" opacity="0.51"/>
<rect x="390" y="60" width="15" height="15" fill="#1b2433" opacity="0.47"/>
<rect x="405" y="60" width="15" height="15" fill="#1b2433" opacity="0.92"/>
<rect x="480" y="60" width="15" height="15" fill="#00b8d4" opacity="0.38"/>
<rect x="510" y="60" width="15" height="15" fill="#ff2bd6" opacity="0.77"/>
<rect x="525" y="60" width="15" height="15" fill="#00e5ff" opacity="0.94"/>
<rect x="540" y="60" width="15" height="15" fill="#ff2bd6" opacity="0.66"/>
<rect x="555" y="60" width="15" height="15" fill="#1b2433" opacity="0.52"/>
<rect x="585" y="60" width="15" height="15" fill="#1b2433" opacity="0.78"/>
<rect x="600" y="60" width="15" height="15" fill="#1b2433" opacity="0.43"/>
<rect x="615" y="60" width="15" height="15" fill="#00b8d4" opacity="0.49"/>
<rect x="645" y="60" width="15" height="15" fill="#7c4dff" opacity="0.64"/>
<rect x="660" y="60" width="15" height="15" fill="#e6f1ff" opacity="0.63"/>
<rect x="675" y="60" width="15" height="15" fill="#7c4dff" opacity="0.41"/>
<rect x="690" y="60" width="15" height="15" fill="#00b8d4" opacity="0.56"/>
<rect x="705" y="60" width="15" height="15" fill="#7c4dff" opacity="0.93"/>
<rect x="720" y="60" width="15" height="15" fill="#1b2433" opacity="0.6"/>
<rect x="735" y="60" width="15" height="15" fill="#7c4dff" opacity="0.59"/>
<rect x="750" y="60" width="15" height="15" fill="#00e5ff" opacity="0.67"/>
<rect x="765" y="60" width="15" height="15" fill="#1b2433" opacity="0.43"/>
<rect x="780" y="60" width="15" height="15" fill="#7c4dff" opacity="0.41"/>
<rect x="795" y="60" width="15" height="15" fill="#1b2433" opacity="0.61"/>
<rect x="810" y="60" width="15" height="15" fill="#1b2433" opacity="0.9"/>
<rect x="825" y="60" width="15" height="15" fill="#00e5ff" opacity="0.43"/>
<rect x="840" y="60" width="15" height="15" fill="#e6f1ff" opacity="0.98"/>
<rect x="855" y="60" width="15" height="15" fill="#00b8d4" opacity="0.6"/>
<rect x="870" y="60" width="15" height="15" fill="#e6f1ff" opacity="0.98"/>
<rect x="885" y="60" width="15" height="15" fill="#00b8d4" opacity="0.5"/>
<rect x="30" y="75" width="15" height="15" fill="#e6f1ff" opacity="0.41"/>
<rect x="60" y="75" width="15" height="15" fill="#ff2bd6" opacity="0.5"/>
<rect x="120" y="75" width="15" height="15" fill="#1b2433" opacity="0.69"/>
<rect x="165" y="75" width="15" height="15" fill="#1b2433" opacity="0.69"/>
<rect x="210" y="75" width="15" height="15" fill="#00e5ff" opacity="0.36"/>
<rect x="225" y="75" width="15" height="15" fill="#e6f1ff" opacity="0.53"/>
<rect x="240" y="75" width="15" height="15" fill="#7c4dff" opacity="0.66"/>
<rect x="255" y="75" width="15" height="15" fill="#7c4dff" opacity="0.37"/>
<rect x="300" y="75" width="15" height="15" fill="#7c4dff" opacity="0.67"/>
<rect x="330" y="75" width="15" height="15" fill="#1b2433" opacity="0.5"/>
<rect x="345" y="75" width="15" height="15" fill="#1b2433" opacity="0.5"/>
<rect x="360" y="75" width="15" height="15" fill="#1b2433" opacity="0.82"/>
<rect x="375" y="75" width="15" height="15" fill="#1b2433" opacity="0.48"/>
<rect x="420" y="75" width="15" height="15" fill="#7c4dff" opacity="0.67"/>
<rect x="435" y="75" width="15" height="15" fill="#7c4dff" opacity="0.5"/>
<rect x="450" y="75" width="15" height="15" fill="#1b2433" opacity="0.42"/>
<rect x="510" y="75" width="15" height="15" fill="#00e5ff" opacity="0.97"/>
<rect x="525" y="75" width="15" height="15" fill="#1b2433" opacity="0.39"/>
<rect x="540" y="75" width="15" height="15" fill="#ff2bd6" opacity="0.62"/>
<rect x="570" y="75" width="15" height="15" fill="#e6f1ff" opacity="0.93"/>
<rect x="645" y="75" width="15" height="15" fill="#ff2bd6" opacity="0.77"/>
<rect x="660" y="75" width="15" height="15" fill="#e6f1ff" opacity="0.37"/>
<rect x="675" y="75" width="15" height="15" fill="#1b2433" opacity="0.9"/>
<rect x="705" y="75" width="15" height="15" fill="#00b8d4" opacity="0.35"/>
<rect x="720" y="75" width="15" height="15" fill="#1b2433" opacity="0.62"/>
<rect x="750" y="75" width="15" height="15" fill="#7c4dff" opacity="0.6"/>
<rect x="765" y="75" width="15" height="15" fill="#1b2433" opacity="0.88"/>
<rect x="780" y="75" width="15" height="15" fill="#00e5ff" opacity="0.81"/>
<rect x="795" y="75" width="15" height="15" fill="#e6f1ff" opacity="0.48"/>
<rect x="810" y="75" width="15" height="15" fill="#e6f1ff" opacity="0.37"/>
<rect x="825" y="75" width="15" height="15" fill="#1b2433" opacity="0.38"/>
<rect x="840" y="75" width="15" height="15" fill="#00b8d4" opacity="0.87"/>
<rect x="855" y="75" width="15" height="15" fill="#7c4dff" opacity="0.84"/>
<rect x="870" y="75" width="15" height="15" fill="#1b2433" opacity="0.59"/>
<rect x="885" y="75" width="15" height="15" fill="#00e5ff" opacity="0.52"/>
<rect x="45" y="90" width="15" height="15" fill="#00b8d4" opacity="0.37"/>
<rect x="135" y="90" width="15" height="15" fill="#1b2433" opacity="0.88"/>
<rect x="150" y="90" width="15" height="15" fill="#e6f1ff" opacity="0.47"/>
<rect x="240" y="90" width="15" height="15" fill="#1b2433" opacity="0.65"/>
<rect x="300" y="90" width="15" height="15" fill="#ff2bd6" opacity="0.51"/>
<rect x="315" y="90" width="15" height="15" fill="#00e5ff" opacity="0.66"/>
<rect x="345" y="90" width="15" height="15" fill="#1b2433" opacity="0.92"/>
<rect x="375" y="90" width="15" height="15" fill="#00b8d4" opacity="0.49"/>
<rect x="390" y="90" width="15" height="15" fill="#e6f1ff" opacity="0.46"/>
<rect x="405" y="90" width="15" height="15" fill="#e6f1ff" opacity="0.75"/>
<rect x="480" y="90" width="15" height="15" fill="#1b2433" opacity="0.54"/>
<rect x="495" y="90" width="15" height="15" fill="#1b2433" opacity="0.52"/>
<rect x="510" y="90" width="15" height="15" fill="#e6f1ff" opacity="0.51"/>
<rect x="525" y="90" width="15" height="15" fill="#ff2bd6" opacity="0.53"/>
<rect x="555" y="90" width="15" height="15" fill="#00b8d4" opacity="0.61"/>
<rect x="585" y="90" width="15" height="15" fill="#7c4dff" opacity="0.77"/>
<rect x="600" y="90" width="15" height="15" fill="#e6f1ff" opacity="0.99"/>
<rect x="615" y="90" width="15" height="15" fill="#e6f1ff" opacity="0.92"/>
<rect x="630" y="90" width="15" height="15" fill="#e6f1ff" opacity="0.94"/>
<rect x="645" y="90" width="15" height="15" fill="#1b2433" opacity="0.5"/>
<rect x="660" y="90" width="15" height="15" fill="#7c4dff" opacity="0.95"/>
<rect x="675" y="90" width="15" height="15" fill="#ff2bd6" opacity="0.64"/>
<rect x="690" y="90" width="15" height="15" fill="#00e5ff" opacity="0.42"/>
<rect x="705" y="90" width="15" height="15" fill="#1b2433" opacity="0.49"/>
<rect x="720" y="90" width="15" height="15" fill="#ff2bd6" opacity="0.38"/>
<rect x="750" y="90" width="15" height="15" fill="#7c4dff" opacity="0.88"/>
<rect x="765" y="90" width="15" height="15" fill="#1b2433" opacity="0.79"/>
<rect x="780" y="90" width="15" height="15" fill="#1b2433" opacity="0.4"/>
<rect x="795" y="90" width="15" height="15" fill="#e6f1ff" opacity="0.71"/>
<rect x="810" y="90" width="15" height="15" fill="#00b8d4" opacity="0.87"/>
<rect x="825" y="90" width="15" height="15" fill="#ff2bd6" opacity="0.77"/>
<rect x="840" y="90" width="15" height="15" fill="#ff2bd6" opacity="0.61"/>
<rect x="855" y="90" width="15" height="15" fill="#1b2433" opacity="0.78"/>
<rect x="870" y="90" width="15" height="15" fill="#00e5ff" opacity="0.55"/>
<rect x="885" y="90" width="15" height="15" fill="#1b2433" opacity="0.62"/>
<rect x="0" y="105" width="15" height="15" fill="#1b2433" opacity="0.77"/>
<rect x="75" y="105" width="15" height="15" fill="#00b8d4" opacity="0.88"/>
<rect x="135" y="105" width="15" height="15" fill="#00e5ff" opacity="0.38"/>
<rect x="150" y="105" width="15" height="15" fill="#1b2433" opacity="0.41"/>
<rect x="210" y="105" width="15" height="15" fill="#1b2433" opacity="0.46"/>
<rect x="225" y="105" width="15" height="15" fill="#00b8d4" opacity="0.42"/>
<rect x="285" y="105" width="15" height="15" fill="#ff2bd6" opacity="0.89"/>
<rect x="300" y="105" width="15" height="15" fill="#e6f1ff" opacity="0.55"/>
<rect x="345" y="105" width="15" height="15" fill="#ff2bd6" opacity="0.77"/>
<rect x="405" y="105" width="15" height="15" fill="#e6f1ff" opacity="0.47"/>
<rect x="420" y="105" width="15" height="15" fill="#1b2433" opacity="0.96"/>
<rect x="435" y="105" width="15" height="15" fill="#1b2433" opacity="0.43"/>
<rect x="450" y="105" width="15" height="15" fill="#7c4dff" opacity="0.38"/>
<rect x="465" y="105" width="15" height="15" fill="#00e5ff" opacity="0.78"/>
<rect x="480" y="105" width="15" height="15" fill="#1b2433" opacity="0.74"/>
<rect x="495" y="105" width="15" height="15" fill="#1b2433" opacity="0.77"/>
<rect x="510" y="105" width="15" height="15" fill="#7c4dff" opacity="0.63"/>
<rect x="540" y="105" width="15" height="15" fill="#e6f1ff" opacity="0.47"/>
<rect x="555" y="105" width="15" height="15" fill="#e6f1ff" opacity="0.65"/>
<rect x="570" y="105" width="15" height="15" fill="#e6f1ff" opacity="0.89"/>
<rect x="600" y="105" width="15" height="15" fill="#00b8d4" opacity="0.43"/>
<rect x="615" y="105" width="15" height="15" fill="#00b8d4" opacity="0.87"/>
<rect x="630" y="105" width="15" height="15" fill="#00e5ff" opacity="0.38"/>
<rect x="645" y="105" width="15" height="15" fill="#1b2433" opacity="0.86"/>
<rect x="660" y="105" width="15" height="15" fill="#00e5ff" opacity="0.84"/>
<rect x="690" y="105" width="15" height="15" fill="#ff2bd6" opacity="0.37"/>
<rect x="705" y="105" width="15" height="15" fill="#00b8d4" opacity="0.48"/>
<rect x="735" y="105" width="15" height="15" fill="#ff2bd6" opacity="0.8"/>
<rect x="750" y="105" width="15" height="15" fill="#7c4dff" opacity="0.39"/>
<rect x="765" y="105" width="15" height="15" fill="#1b2433" opacity="0.45"/>
<rect x="795" y="105" width="15" height="15" fill="#e6f1ff" opacity="0.44"/>
<rect x="810" y="105" width="15" height="15" fill="#e6f1ff" opacity="0.49"/>
<rect x="825" y="105" width="15" height="15" fill="#7c4dff" opacity="0.56"/>
<rect x="840" y="105" width="15" height="15" fill="#ff2bd6" opacity="0.61"/>
<rect x="855" y="105" width="15" height="15" fill="#1b2433" opacity="0.79"/>
<rect x="870" y="105" width="15" height="15" fill="#ff2bd6" opacity="0.86"/>
<rect x="885" y="105" width="15" height="15" fill="#00e5ff" opacity="0.76"/>
<rect x="75" y="120" width="15" height="15" fill="#1b2433" opacity="0.83"/>
<rect x="135" y="120" width="15" height="15" fill="#1b2433" opacity="0.85"/>
<rect x="165" y="120" width="15" height="15" fill="#00e5ff" opacity="0.54"/>
<rect x="195" y="120" width="15" height="15" fill="#1b2433" opacity="0.83"/>
<rect x="225" y="120" width="15" height="15" fill="#1b2433" opacity="0.75"/>
<rect x="285" y="120" width="15" height="15" fill="#7c4dff" opacity="0.75"/>
<rect x="300" y="120" width="15" height="15" fill="#00e5ff" opacity="0.35"/>
<rect x="315" y="120" width="15" height="15" fill="#00b8d4" opacity="0.69"/>
<rect x="345" y="120" width="15" height="15" fill="#1b2433" opacity="0.73"/>
<rect x="360" y="120" width="15" height="15" fill="#e6f1ff" opacity="0.45"/>
<rect x="375" y="120" width="15" height="15" fill="#7c4dff" opacity="0.81"/>
<rect x="390" y="120" width="15" height="15" fill="#00b8d4" opacity="0.76"/>
<rect x="435" y="120" width="15" height="15" fill="#1b2433" opacity="0.98"/>
<rect x="450" y="120" width="15" height="15" fill="#1b2433" opacity="0.74"/>
<rect x="465" y="120" width="15" height="15" fill="#e6f1ff" opacity="0.51"/>
<rect x="495" y="120" width="15" height="15" fill="#00e5ff" opacity="0.61"/>
<rect x="510" y="120" width="15" height="15" fill="#00e5ff" opacity="0.94"/>
<rect x="525" y="120" width="15" height="15" fill="#7c4dff" opacity="0.44"/>
<rect x="540" y="120" width="15" height="15" fill="#1b2433" opacity="0.88"/>
<rect x="555" y="120" width="15" height="15" fill="#1b2433" opacity="0.39"/>
<rect x="570" y="120" width="15" height="15" fill="#e6f1ff" opacity="0.82"/>
<rect x="585" y="120" width="15" height="15" fill="#1b2433" opacity="0.83"/>
<rect x="600" y="120" width="15" height="15" fill="#e6f1ff" opacity="0.46"/>
<rect x="630" y="120" width="15" height="15" fill="#00e5ff" opacity="0.43"/>
<rect x="690" y="120" width="15" height="15" fill="#00e5ff" opacity="0.52"/>
<rect x="705" y="120" width="15" height="15" fill="#1b2433" opacity="0.8"/>
<rect x="750" y="120" width="15" height="15" fill="#7c4dff" opacity="0.41"/>
<rect x="765" y="120" width="15" height="15" fill="#ff2bd6" opacity="0.52"/>
<rect x="780" y="120" width="15" height="15" fill="#7c4dff" opacity="0.96"/>
<rect x="795" y="120" width="15" height="15" fill="#1b2433" opacity="0.47"/>
<rect x="810" y="120" width="15" height="15" fill="#7c4dff" opacity="0.6"/>
<rect x="825" y="120" width="15" height="15" fill="#e6f1ff" opacity="0.66"/>
<rect x="840" y="120" width="15" height="15" fill="#00e5ff" opacity="0.91"/>
<rect x="855" y="120" width="15" height="15" fill="#7c4dff" opacity="0.72"/>
<rect x="870" y="120" width="15" height="15" fill="#7c4dff" opacity="0.6"/>
<rect x="885" y="120" width="15" height="15" fill="#ff2bd6" opacity="0.44"/>
<rect x="0" y="135" width="15" height="15" fill="#00b8d4" opacity="0.75"/>
<rect x="15" y="135" width="15" height="15" fill="#ff2bd6" opacity="0.81"/>
<rect x="30" y="135" width="15" height="15" fill="#ff2bd6" opacity="0.8"/>
<rect x="90" y="135" width="15" height="15" fill="#1b2433" opacity="0.48"/>
<rect x="210" y="135" width="15" height="15" fill="#7c4dff" opacity="0.42"/>
<rect x="225" y="135" width="15" height="15" fill="#00b8d4" opacity="0.89"/>
<rect x="255" y="135" width="15" height="15" fill="#00b8d4" opacity="0.44"/>
<rect x="300" y="135" width="15" height="15" fill="#1b2433" opacity="0.63"/>
<rect x="315" y="135" width="15" height="15" fill="#1b2433" opacity="0.95"/>
<rect x="330" y="135" width="15" height="15" fill="#1b2433" opacity="0.94"/>
<rect x="375" y="135" width="15" height="15" fill="#1b2433" opacity="0.75"/>
<rect x="390" y="135" width="15" height="15" fill="#1b2433" opacity="0.37"/>
<rect x="405" y="135" width="15" height="15" fill="#00b8d4" opacity="0.58"/>
<rect x="435" y="135" width="15" height="15" fill="#7c4dff" opacity="0.81"/>
<rect x="465" y="135" width="15" height="15" fill="#1b2433" opacity="0.46"/>
<rect x="480" y="135" width="15" height="15" fill="#7c4dff" opacity="0.54"/>
<rect x="510" y="135" width="15" height="15" fill="#1b2433" opacity="0.67"/>
<rect x="525" y="135" width="15" height="15" fill="#ff2bd6" opacity="0.98"/>
<rect x="540" y="135" width="15" height="15" fill="#1b2433" opacity="0.73"/>
<rect x="555" y="135" width="15" height="15" fill="#7c4dff" opacity="0.96"/>
<rect x="570" y="135" width="15" height="15" fill="#ff2bd6" opacity="0.42"/>
<rect x="585" y="135" width="15" height="15" fill="#00b8d4" opacity="0.67"/>
<rect x="615" y="135" width="15" height="15" fill="#00b8d4" opacity="0.76"/>
<rect x="630" y="135" width="15" height="15" fill="#1b2433" opacity="0.95"/>
<rect x="660" y="135" width="15" height="15" fill="#1b2433" opacity="0.93"/>
<rect x="675" y="135" width="15" height="15" fill="#7c4dff" opacity="0.55"/>
<rect x="690" y="135" width="15" height="15" fill="#ff2bd6" opacity="0.6"/>
<rect x="720" y="135" width="15" height="15" fill="#e6f1ff" opacity="0.43"/>
<rect x="735" y="135" width="15" height="15" fill="#00e5ff" opacity="0.58"/>
<rect x="750" y="135" width="15" height="15" fill="#ff2bd6" opacity="0.91"/>
<rect x="765" y="135" width="15" height="15" fill="#1b2433" opacity="0.46"/>
<rect x="780" y="135" width="15" height="15" fill="#1b2433" opacity="0.73"/>
<rect x="795" y="135" width="15" height="15" fill="#e6f1ff" opacity="0.77"/>
<rect x="810" y="135" width="15" height="15" fill="#7c4dff" opacity="0.52"/>
<rect x="825" y="135" width="15" height="15" fill="#ff2bd6" opacity="0.82"/>
<rect x="855" y="135" width="15" height="15" fill="#1b2433" opacity="0.45"/>
<rect x="870" y="135" width="15" height="15" fill="#7c4dff" opacity="0.52"/>
<rect x="885" y="135" width="15" height="15" fill="#00b8d4" opacity="0.46"/>
<rect x="0" y="0" width="560" height="150" fill="#0a0e14" opacity="0.0"/>
<text x="24" y="104" font-family="Consolas,Courier New,monospace" font-weight="700" font-size="84" fill="#e6f1ff" letter-spacing="4">CYBERSORA</text>
<text x="26" y="104" font-family="Consolas,Courier New,monospace" font-weight="700" font-size="84" fill="none" stroke="#00e5ff" stroke-width="1" letter-spacing="4" opacity=".6" transform="translate(3,3)">CYBERSORA</text>
<text x="876" y="210" text-anchor="end" font-family="Consolas,Courier New,monospace" font-size="22" fill="#00e5ff" letter-spacing="2">SOLO DEV  /  AI TOOLS  /  DESKTOP APPS</text>
<text x="876" y="238" text-anchor="end" font-family="Consolas,Courier New,monospace" font-size="16" fill="#7c8aa5">cybersora.pl  ·  Gorlice, PL</text>
</svg>