<svg xmlns="http://www.w3.org/2000/svg" width="1200" height="56" viewBox="0 0 1200 56"><style>@keyframes a{0%,100%{opacity:.15}50%{opacity:1}}.f1{animation:a 3s infinite}.f2{animation:a 4.3s .7s infinite}.f3{animation:a 5.1s 1.9s infinite}</style><rect width="1200" height="56" fill="#0e0e12"/><rect width="6" height="56" fill="#e11d33"/><path fill="#e11d33" d="M29.9 34.4 33.9 26.9 35.1 26.9 31.1 34.5ZM32.5 36.2Q31.3 36.2 30.5 35.6Q29.6 34.9 29.2 33.6Q28.7 32.4 28.7 30.7Q28.7 29 29.2 27.7Q29.6 26.5 30.5 25.8Q31.3 25.1 32.5 25.1Q33.7 25.1 34.5 25.8Q35.4 26.5 35.8 27.7Q36.3 29 36.3 30.7Q36.3 32.4 35.8 33.6Q35.4 34.9 34.5 35.6Q33.7 36.2 32.5 36.2ZM32.5 34.8Q33.2 34.8 33.7 34.3Q34.1 33.8 34.4 32.9Q34.6 32 34.6 30.7Q34.6 29.4 34.4 28.5Q34.1 27.6 33.7 27.1Q33.2 26.6 32.5 26.6Q31.8 26.6 31.4 27.1Q30.9 27.6 30.6 28.5Q30.4 29.4 30.4 30.7Q30.4 32 30.6 32.9Q30.9 33.8 31.4 34.3Q31.8 34.8 32.5 34.8Z M44.6 36V33.8H39.5V32.4L44.4 25.4H46.2V32.3H47.5V33.8H46.2V36ZM41.1 32.3H44.6V27.4Z"/><path fill="#f4f1f2" d="M74.7 38.5Q72 38.5 70.2 37.7Q68.4 36.9 67.5 35.4Q66.6 34 66.6 32.1H71.3Q71.3 32.8 71.6 33.3Q72 33.9 72.8 34.2Q73.5 34.5 74.7 34.5Q75.7 34.5 76.4 34.3Q77.1 34 77.5 33.5Q77.9 33.1 77.9 32.4Q77.9 31.6 77.2 31.1Q76.5 30.7 74.8 30.5L73.6 30.4Q70.7 30.2 68.9 28.6Q67.2 27 67.2 24.4Q67.2 22.5 68 21.2Q68.9 19.9 70.5 19.1Q72.1 18.4 74.2 18.4Q76.6 18.4 78.2 19.2Q79.8 20 80.7 21.4Q81.5 22.8 81.5 24.7H76.9Q76.9 24.1 76.6 23.6Q76.2 23.1 75.7 22.8Q75.1 22.5 74.2 22.5Q73.5 22.5 72.9 22.7Q72.4 22.9 72.1 23.4Q71.8 23.8 71.8 24.4Q71.8 25.1 72.3 25.6Q72.8 26.1 74.1 26.2L75.3 26.4Q77.4 26.5 79.1 27.3Q80.7 28 81.6 29.3Q82.6 30.6 82.6 32.4Q82.6 34.3 81.6 35.6Q80.7 37 78.9 37.8Q77.2 38.5 74.7 38.5Z M89.9 38V22.7H94.7V38ZM84.7 23.2V19H99.9V23.2Z M101.6 38 107.7 19H115.4L121.7 38H116.8L111.9 22.4L113.2 22.9H109.8L111.2 22.4L106.5 38ZM106.6 33.6 108 29.7H115.2L116.7 33.6Z M133.7 38.5Q131.2 38.5 129.3 37.6Q127.5 36.7 126.3 35.3Q125.1 33.8 124.5 32.1Q123.9 30.4 123.9 28.7V28.2Q123.9 26.4 124.5 24.6Q125.1 22.9 126.3 21.5Q127.5 20.1 129.3 19.3Q131.2 18.4 133.6 18.4Q136.2 18.4 138.2 19.4Q140.2 20.4 141.5 22.2Q142.7 23.9 142.9 26.2H138.1Q137.9 25.2 137.3 24.5Q136.7 23.8 135.7 23.4Q134.8 23 133.6 23Q132.5 23 131.6 23.4Q130.7 23.8 130.1 24.5Q129.5 25.2 129.2 26.2Q128.8 27.2 128.8 28.5Q128.8 29.8 129.2 30.8Q129.5 31.8 130.1 32.5Q130.8 33.2 131.7 33.6Q132.6 34 133.7 34Q135.6 34 136.8 33.1Q138.1 32.2 138.3 30.7H143.2Q142.9 32.9 141.7 34.6Q140.6 36.4 138.5 37.5Q136.5 38.5 133.7 38.5Z M159.4 38 153.2 29.1H150.6L158.3 19H163.9L157 28.1V26.2L165.2 38ZM146.7 38V19H151.6V38Z"/><rect x="189" y="12" width="7" height="7" fill="#7a1035" opacity="0.31"/><rect x="237" y="12" width="7" height="7" fill="#7a1035" opacity="0.66"/><rect class="f2" x="461" y="12" width="7" height="7" fill="#ff3a52" opacity="0.66"/><rect x="477" y="12" width="7" height="7" fill="#e11d33" opacity="0.51"/><rect x="501" y="12" width="7" height="7" fill="#7a1035" opacity="0.4"/><rect x="525" y="12" width="7" height="7" fill="#7a1035" opacity="0.47"/><rect x="533" y="12" width="7" height="7" fill="#e11d33" opacity="0.83"/><rect x="541" y="12" width="7" height="7" fill="#e11d33" opacity="0.7"/><rect x="565" y="12" width="7" height="7" fill="#e11d33" opacity="0.83"/><rect x="581" y="12" width="7" height="7" fill="#e11d33" opacity="0.42"/><rect x="621" y="12" width="7" height="7" fill="#ff3a52" opacity="0.8"/><rect class="f2" x="629" y="12" width="7" height="7" fill="#3a1a22" opacity="0.32"/><rect x="645" y="12" width="7" height="7" fill="#d4132b" opacity="0.75"/><rect x="693" y="12" width="7" height="7" fill="#3a1a22" opacity="0.56"/><rect class="f2" x="741" y="12" width="7" height="7" fill="#e11d33" opacity="0.89"/><rect class="f1" x="757" y="12" width="7" height="7" fill="#3a1a22" opacity="0.81"/><rect x="789" y="12" width="7" height="7" fill="#e11d33" opacity="0.83"/><rect class="f3" x="813" y="12" width="7" height="7" fill="#e11d33" opacity="0.69"/><rect x="821" y="12" width="7" height="7" fill="#ff3a52" opacity="0.71"/><rect class="f3" x="877" y="12" width="7" height="7" fill="#7a1035" opacity="0.74"/><rect x="885" y="12" width="7" height="7" fill="#3a1a22" opacity="0.39"/><rect x="917" y="12" width="7" height="7" fill="#7a1035" opacity="0.61"/><rect class="f1" x="925" y="12" width="7" height="7" fill="#e11d33" opacity="0.71"/><rect x="933" y="12" width="7" height="7" fill="#e11d33" opacity="0.34"/><rect x="941" y="12" width="7" height="7" fill="#ff3a52" opacity="0.69"/><rect x="949" y="12" width="7" height="7" fill="#d4132b" opacity="1.0"/><rect class="f3" x="957" y="12" width="7" height="7" fill="#e11d33" opacity="0.85"/><rect x="965" y="12" width="7" height="7" fill="#7a1035" opacity="0.5"/><rect x="973" y="12" width="7" height="7" fill="#d4132b" opacity="0.57"/><rect class="f2" x="981" y="12" width="7" height="7" fill="#f4f1f2" opacity="0.55"/><rect x="989" y="12" width="7" height="7" fill="#7a1035" opacity="0.49"/><rect x="1005" y="12" width="7" height="7" fill="#d4132b" opacity="0.76"/><rect class="f2" x="1021" y="12" width="7" height="7" fill="#ff3a52" opacity="0.81"/><rect x="1029" y="12" width="7" height="7" fill="#e11d33" opacity="0.38"/><rect x="1053" y="12" width="7" height="7" fill="#e11d33" opacity="0.81"/><rect x="1061" y="12" width="7" height="7" fill="#e11d33" opacity="0.82"/><rect x="1069" y="12" width="7" height="7" fill="#7a1035" opacity="0.42"/><rect x="1085" y="12" width="7" height="7" fill="#3a1a22" opacity="0.7"/><rect x="1093" y="12" width="7" height="7" fill="#e11d33" opacity="0.54"/><rect class="f3" x="1101" y="12" width="7" height="7" fill="#e11d33" opacity="0.57"/><rect x="1109" y="12" width="7" height="7" fill="#7a1035" opacity="0.8"/><rect x="1117" y="12" width="7" height="7" fill="#e11d33" opacity="0.49"/><rect x="1125" y="12" width="7" height="7" fill="#e11d33" opacity="0.48"/><rect x="1133" y="12" width="7" height="7" fill="#ff3a52" opacity="0.95"/><rect x="1141" y="12" width="7" height="7" fill="#3a1a22" opacity="0.77"/><rect x="1149" y="12" width="7" height="7" fill="#3a1a22" opacity="0.96"/><rect x="1157" y="12" width="7" height="7" fill="#ff3a52" opacity="0.94"/><rect class="f1" x="1165" y="12" width="7" height="7" fill="#e11d33" opacity="0.39"/><rect x="1181" y="12" width="7" height="7" fill="#f4f1f2" opacity="0.96"/><rect x="253" y="20" width="7" height="7" fill="#d4132b" opacity="0.66"/><rect x="429" y="20" width="7" height="7" fill="#3a1a22" opacity="0.58"/><rect x="485" y="20" width="7" height="7" fill="#e11d33" opacity="0.94"/><rect x="613" y="20" width="7" height="7" fill="#d4132b" opacity="0.63"/><rect class="f2" x="645" y="20" width="7" height="7" fill="#f4f1f2" opacity="0.37"/><rect x="709" y="20" width="7" height="7" fill="#3a1a22" opacity="0.65"/><rect x="725" y="20" width="7" height="7" fill="#d4132b" opacity="0.35"/><rect x="749" y="20" width="7" height="7" fill="#d4132b" opacity="0.94"/><rect x="781" y="20" width="7" height="7" fill="#e11d33" opacity="0.65"/><rect x="797" y="20" width="7" height="7" fill="#e11d33" opacity="0.47"/><rect x="813" y="20" width="7" height="7" fill="#ff3a52" opacity="0.58"/><rect x="829" y="20" width="7" height="7" fill="#7a1035" opacity="0.52"/><rect x="853" y="20" width="7" height="7" fill="#e11d33" opacity="0.77"/><rect x="861" y="20" width="7" height="7" fill="#ff3a52" opacity="0.81"/><rect x="877" y="20" width="7" height="7" fill="#3a1a22" opacity="0.71"/><rect x="885" y="20" width="7" height="7" fill="#e11d33" opacity="0.63"/><rect x="909" y="20" width="7" height="7" fill="#e11d33" opacity="0.58"/><rect class="f1" x="917" y="20" width="7" height="7" fill="#d4132b" opacity="0.53"/><rect x="925" y="20" width="7" height="7" fill="#d4132b" opacity="0.93"/><rect x="941" y="20" width="7" height="7" fill="#ff3a52" opacity="0.84"/><rect x="949" y="20" width="7" height="7" fill="#ff3a52" opacity="0.5"/><rect x="957" y="20" width="7" height="7" fill="#7a1035" opacity="0.69"/><rect x="973" y="20" width="7" height="7" fill="#e11d33" opacity="0.56"/><rect class="f3" x="981" y="20" width="7" height="7" fill="#e11d33" opacity="0.52"/><rect x="997" y="20" width="7" height="7" fill="#e11d33" opacity="0.54"/><rect class="f1" x="1005" y="20" width="7" height="7" fill="#d4132b" opacity="0.43"/><rect x="1013" y="20" width="7" height="7" fill="#3a1a22" opacity="0.55"/><rect x="1021" y="20" width="7" height="7" fill="#e11d33" opacity="0.74"/><rect x="1037" y="20" width="7" height="7" fill="#ff3a52" opacity="0.54"/><rect x="1045" y="20" width="7" height="7" fill="#e11d33" opacity="0.49"/><rect x="1061" y="20" width="7" height="7" fill="#7a1035" opacity="0.48"/><rect x="1069" y="20" width="7" height="7" fill="#ff3a52" opacity="0.55"/><rect x="1077" y="20" width="7" height="7" fill="#f4f1f2" opacity="0.93"/><rect x="1093" y="20" width="7" height="7" fill="#7a1035" opacity="0.95"/><rect x="1101" y="20" width="7" height="7" fill="#e11d33" opacity="0.72"/><rect x="1109" y="20" width="7" height="7" fill="#f4f1f2" opacity="0.92"/><rect x="1125" y="20" width="7" height="7" fill="#e11d33" opacity="0.49"/><rect x="1133" y="20" width="7" height="7" fill="#3a1a22" opacity="0.37"/><rect x="1141" y="20" width="7" height="7" fill="#e11d33" opacity="0.81"/><rect x="1157" y="20" width="7" height="7" fill="#3a1a22" opacity="0.7"/><rect class="f2" x="1165" y="20" width="7" height="7" fill="#d4132b" opacity="0.38"/><rect x="1173" y="20" width="7" height="7" fill="#ff3a52" opacity="0.6"/><rect x="1181" y="20" width="7" height="7" fill="#e11d33" opacity="0.77"/><rect x="1189" y="20" width="7" height="7" fill="#e11d33" opacity="0.35"/><rect x="309" y="28" width="7" height="7" fill="#7a1035" opacity="0.69"/><rect class="f1" x="325" y="28" width="7" height="7" fill="#d4132b" opacity="0.96"/><rect x="413" y="28" width="7" height="7" fill="#3a1a22" opacity="0.78"/><rect x="421" y="28" width="7" height="7" fill="#3a1a22" opacity="0.77"/><rect class="f3" x="445" y="28" width="7" height="7" fill="#7a1035" opacity="0.6"/><rect x="517" y="28" width="7" height="7" fill="#3a1a22" opacity="0.33"/><rect x="597" y="28" width="7" height="7" fill="#e11d33" opacity="0.48"/><rect x="613" y="28" width="7" height="7" fill="#3a1a22" opacity="0.63"/><rect x="621" y="28" width="7" height="7" fill="#d4132b" opacity="0.34"/><rect x="661" y="28" width="7" height="7" fill="#3a1a22" opacity="0.79"/><rect x="669" y="28" width="7" height="7" fill="#d4132b" opacity="0.83"/><rect x="685" y="28" width="7" height="7" fill="#7a1035" opacity="0.83"/><rect class="f2" x="693" y="28" width="7" height="7" fill="#d4132b" opacity="0.86"/><rect x="741" y="28" width="7" height="7" fill="#e11d33" opacity="0.59"/><rect x="749" y="28" width="7" height="7" fill="#e11d33" opacity="0.44"/><rect x="765" y="28" width="7" height="7" fill="#e11d33" opacity="0.65"/><rect x="781" y="28" width="7" height="7" fill="#3a1a22" opacity="0.68"/><rect x="813" y="28" width="7" height="7" fill="#e11d33" opacity="0.93"/><rect x="861" y="28" width="7" height="7" fill="#3a1a22" opacity="0.87"/><rect x="869" y="28" width="7" height="7" fill="#7a1035" opacity="0.45"/><rect x="893" y="28" width="7" height="7" fill="#ff3a52" opacity="0.49"/><rect x="925" y="28" width="7" height="7" fill="#3a1a22" opacity="0.74"/><rect x="933" y="28" width="7" height="7" fill="#7a1035" opacity="0.36"/><rect x="957" y="28" width="7" height="7" fill="#f4f1f2" opacity="0.91"/><rect x="981" y="28" width="7" height="7" fill="#3a1a22" opacity="0.93"/><rect x="997" y="28" width="7" height="7" fill="#7a1035" opacity="0.54"/><rect x="1021" y="28" width="7" height="7" fill="#e11d33" opacity="0.99"/><rect x="1037" y="28" width="7" height="7" fill="#d4132b" opacity="0.78"/><rect x="1053" y="28" width="7" height="7" fill="#7a1035" opacity="0.71"/><rect x="1069" y="28" width="7" height="7" fill="#e11d33" opacity="0.89"/><rect x="1077" y="28" width="7" height="7" fill="#e11d33" opacity="0.54"/><rect class="f3" x="1101" y="28" width="7" height="7" fill="#e11d33" opacity="0.58"/><rect x="1109" y="28" width="7" height="7" fill="#ff3a52" opacity="0.58"/><rect class="f2" x="1117" y="28" width="7" height="7" fill="#e11d33" opacity="0.5"/><rect x="1125" y="28" width="7" height="7" fill="#3a1a22" opacity="1.0"/><rect x="1133" y="28" width="7" height="7" fill="#d4132b" opacity="0.88"/><rect class="f1" x="1141" y="28" width="7" height="7" fill="#7a1035" opacity="0.9"/><rect x="1149" y="28" width="7" height="7" fill="#e11d33" opacity="0.71"/><rect x="1165" y="28" width="7" height="7" fill="#d4132b" opacity="0.34"/><rect class="f1" x="1173" y="28" width="7" height="7" fill="#3a1a22" opacity="0.33"/><rect x="1181" y="28" width="7" height="7" fill="#d4132b" opacity="0.38"/><rect x="1189" y="28" width="7" height="7" fill="#e11d33" opacity="0.77"/><rect class="f1" x="237" y="36" width="7" height="7" fill="#ff3a52" opacity="0.57"/><rect x="245" y="36" width="7" height="7" fill="#ff3a52" opacity="0.74"/><rect class="f1" x="421" y="36" width="7" height="7" fill="#3a1a22" opacity="0.39"/><rect x="461" y="36" width="7" height="7" fill="#3a1a22" opacity="0.96"/><rect x="493" y="36" width="7" height="7" fill="#e11d33" opacity="0.79"/><rect x="501" y="36" width="7" height="7" fill="#e11d33" opacity="0.88"/><rect x="573" y="36" width="7" height="7" fill="#e11d33" opacity="0.41"/><rect x="621" y="36" width="7" height="7" fill="#3a1a22" opacity="0.31"/><rect x="669" y="36" width="7" height="7" fill="#d4132b" opacity="0.69"/><rect x="677" y="36" width="7" height="7" fill="#e11d33" opacity="0.99"/><rect class="f1" x="685" y="36" width="7" height="7" fill="#d4132b" opacity="0.71"/><rect x="717" y="36" width="7" height="7" fill="#ff3a52" opacity="0.48"/><rect x="725" y="36" width="7" height="7" fill="#d4132b" opacity="0.59"/><rect class="f3" x="733" y="36" width="7" height="7" fill="#d4132b" opacity="0.42"/><rect x="741" y="36" width="7" height="7" fill="#7a1035" opacity="0.34"/><rect x="765" y="36" width="7" height="7" fill="#ff3a52" opacity="0.63"/><rect x="773" y="36" width="7" height="7" fill="#3a1a22" opacity="0.71"/><rect x="781" y="36" width="7" height="7" fill="#e11d33" opacity="0.79"/><rect x="845" y="36" width="7" height="7" fill="#ff3a52" opacity="0.95"/><rect x="861" y="36" width="7" height="7" fill="#7a1035" opacity="0.61"/><rect x="869" y="36" width="7" height="7" fill="#7a1035" opacity="0.88"/><rect class="f2" x="901" y="36" width="7" height="7" fill="#d4132b" opacity="0.68"/><rect x="909" y="36" width="7" height="7" fill="#e11d33" opacity="0.39"/><rect x="933" y="36" width="7" height="7" fill="#e11d33" opacity="0.54"/><rect x="957" y="36" width="7" height="7" fill="#3a1a22" opacity="0.74"/><rect x="973" y="36" width="7" height="7" fill="#3a1a22" opacity="0.95"/><rect x="981" y="36" width="7" height="7" fill="#e11d33" opacity="0.66"/><rect class="f2" x="997" y="36" width="7" height="7" fill="#ff3a52" opacity="0.64"/><rect x="1005" y="36" width="7" height="7" fill="#e11d33" opacity="0.57"/><rect x="1013" y="36" width="7" height="7" fill="#d4132b" opacity="0.94"/><rect class="f3" x="1021" y="36" width="7" height="7" fill="#7a1035" opacity="0.79"/><rect x="1029" y="36" width="7" height="7" fill="#7a1035" opacity="0.83"/><rect class="f2" x="1037" y="36" width="7" height="7" fill="#3a1a22" opacity="0.3"/><rect class="f2" x="1053" y="36" width="7" height="7" fill="#7a1035" opacity="0.39"/><rect x="1077" y="36" width="7" height="7" fill="#3a1a22" opacity="0.57"/><rect x="1085" y="36" width="7" height="7" fill="#e11d33" opacity="0.96"/><rect x="1093" y="36" width="7" height="7" fill="#7a1035" opacity="0.68"/><rect x="1101" y="36" width="7" height="7" fill="#ff3a52" opacity="0.56"/><rect class="f2" x="1109" y="36" width="7" height="7" fill="#e11d33" opacity="0.79"/><rect x="1117" y="36" width="7" height="7" fill="#ff3a52" opacity="0.8"/><rect class="f1" x="1125" y="36" width="7" height="7" fill="#d4132b" opacity="0.5"/><rect x="1133" y="36" width="7" height="7" fill="#d4132b" opacity="0.31"/><rect x="1149" y="36" width="7" height="7" fill="#e11d33" opacity="0.89"/><rect x="1157" y="36" width="7" height="7" fill="#7a1035" opacity="0.75"/><rect x="1165" y="36" width="7" height="7" fill="#e11d33" opacity="0.65"/></svg>