<svg xmlns="http://www.w3.org/2000/svg" width="1200" height="56" viewBox="0 0 1200 56"><style>@keyframes a{0%,100%{opacity:.15}50%{opacity:1}}.f1{animation:a 3s infinite}.f2{animation:a 4.3s .7s infinite}.f3{animation:a 5.1s 1.9s infinite}</style><rect width="1200" height="56" fill="#0e0e12"/><rect width="6" height="56" fill="#e11d33"/><path fill="#e11d33" d="M29.854003295898437 34.403995971679684 33.94599670410156 26.8680029296875 35.14599670410156 26.946004028320313 31.054003295898436 34.4819970703125ZM32.5 36.24Q31.329999084472657 36.24 30.47799880981445 35.56650009155274Q29.62599853515625 34.89300018310547 29.172998352050783 33.64800018310547Q28.719998168945313 32.40300018310547 28.719998168945313 30.69Q28.719998168945313 28.965 29.172998352050783 27.718499908447264Q29.62599853515625 26.47199981689453 30.47799880981445 25.790999908447265Q31.329999084472657 25.11 32.5 25.11Q33.682000732421876 25.11 34.528001098632814 25.790999908447265Q35.37400146484375 26.47199981689453 35.82700164794922 27.718499908447264Q36.28000183105469 28.965 36.28000183105469 30.69Q36.28000183105469 32.40300018310547 35.82700164794922 33.64800018310547Q35.37400146484375 34.89300018310547 34.528001098632814 35.56650009155274Q33.682000732421876 36.24 32.5 36.24ZM32.5 34.769987182617186Q33.17499542236328 34.769987182617186 33.65049194335937 34.28548965454101Q34.125988464355466 33.80099212646484 34.386986541748044 32.882995147705074Q34.64798461914062 31.964998168945314 34.64798461914062 30.69Q34.64798461914062 29.388002014160158 34.386986541748044 28.47000503540039Q34.125988464355466 27.552008056640624 33.65049194335937 27.06601043701172Q33.17499542236328 26.580012817382812 32.5 26.580012817382812Q31.84000457763672 26.580012817382812 31.357008056640623 27.06601043701172Q30.87401153564453 27.552008056640624 30.613013458251952 28.47000503540039Q30.352015380859374 29.388002014160158 30.352015380859374 30.69Q30.352015380859374 31.964998168945314 30.613013458251952 32.882995147705074Q30.87401153564453 33.80099212646484 31.357008056640623 34.28548965454101Q31.84000457763672 34.769987182617186 32.5 34.769987182617186Z M44.60698699951172 36.0V33.75000366210938H39.53999633789063V32.384991760253904L44.44798278808594 25.35H46.17900421142578V32.29199157714844H47.46000366210937V33.75000366210938H46.17900421142578V36.0ZM41.08801025390625 32.29199157714844H44.60698699951172V27.44401794433594Z"/><path fill="#f4f1f2" d="M74.684 38.52Q72.032 38.52 70.225 37.688Q68.418 36.856 67.495 35.413Q66.572 33.97 66.572 32.098H71.252Q71.252 32.774 71.62899999999999 33.333Q72.006 33.892 72.75999999999999 34.204Q73.514 34.516 74.684 34.516Q75.69800000000001 34.516 76.41300000000001 34.256Q77.128 33.996 77.505 33.528000000000006Q77.882 33.06 77.882 32.41Q77.882 31.578 77.18 31.122999999999998Q76.478 30.668 74.814 30.538L73.592 30.434Q70.654 30.174 68.912 28.588Q67.17 27.002000000000002 67.17 24.376Q67.17 22.504 68.041 21.178Q68.912 19.852 70.498 19.15Q72.084 18.448 74.242 18.448Q76.582 18.448 78.207 19.228Q79.832 20.008 80.69 21.424999999999997Q81.548 22.842 81.548 24.714H76.868Q76.868 24.09 76.556 23.57Q76.244 23.05 75.65899999999999 22.750999999999998Q75.074 22.451999999999998 74.242 22.451999999999998Q73.462 22.451999999999998 72.929 22.698999999999998Q72.396 22.946 72.12299999999999 23.387999999999998Q71.85 23.83 71.85 24.376Q71.85 25.104 72.344 25.624Q72.838 26.144 74.06 26.248L75.282 26.352Q77.414 26.534 79.05199999999999 27.275Q80.69 28.016 81.626 29.29Q82.562 30.564 82.562 32.41Q82.562 34.256 81.613 35.634Q80.664 37.012 78.90899999999999 37.766000000000005Q77.154 38.52 74.684 38.52Z M89.854 38.0V22.712000000000003H94.69V38.0ZM84.654 23.232V19.02H99.89V23.232Z M101.618 38.0 107.702 19.02H115.44999999999999L121.74199999999999 38.0H116.75L111.862 22.4L113.24 22.92H109.80799999999999L111.21199999999999 22.4L106.454 38.0ZM106.584 33.606 108.03999999999999 29.654H115.24199999999999L116.698 33.606Z M133.73999999999998 38.52Q131.166 38.52 129.32 37.623000000000005Q127.47399999999999 36.726 126.27799999999999 35.257Q125.082 33.788 124.50999999999999 32.072Q123.93799999999999 30.356 123.93799999999999 28.744V28.172Q123.93799999999999 26.378 124.523 24.649Q125.10799999999999 22.92 126.31699999999998 21.516000000000002Q127.52599999999998 20.112000000000002 129.346 19.28Q131.166 18.448 133.60999999999999 18.448Q136.20999999999998 18.448 138.22499999999997 19.423000000000002Q140.23999999999998 20.398 141.462 22.153Q142.684 23.908 142.892 26.222H138.05599999999998Q137.874 25.234 137.276 24.506Q136.678 23.778 135.742 23.375Q134.80599999999998 22.972 133.60999999999999 22.972Q132.492 22.972 131.59499999999997 23.362000000000002Q130.69799999999998 23.752000000000002 130.087 24.467000000000002Q129.476 25.182000000000002 129.151 26.196Q128.826 27.21 128.826 28.484Q128.826 29.758000000000003 129.151 30.772000000000002Q129.476 31.786 130.113 32.513999999999996Q130.75 33.242 131.66 33.619Q132.57 33.996 133.73999999999998 33.996Q135.56 33.996 136.821 33.112Q138.082 32.228 138.34199999999998 30.746000000000002H143.178Q142.944 32.878 141.748 34.646Q140.552 36.414 138.524 37.467Q136.49599999999998 38.52 133.73999999999998 38.52Z M159.362 38.0 153.2 29.134H150.626L158.296 19.02H163.85999999999999L156.99599999999998 28.067999999999998V26.222L165.18599999999998 38.0ZM146.726 38.0V19.02H151.56199999999998V38.0Z"/><rect x="189" y="12" width="7" height="7" fill="#7a1035" opacity="0.31"/><rect x="237" y="12" width="7" height="7" fill="#7a1035" opacity="0.66"/><rect class="f2" x="461" y="12" width="7" height="7" fill="#ff3a52" opacity="0.66"/><rect x="477" y="12" width="7" height="7" fill="#e11d33" opacity="0.51"/><rect x="501" y="12" width="7" height="7" fill="#7a1035" opacity="0.4"/><rect x="525" y="12" width="7" height="7" fill="#7a1035" opacity="0.47"/><rect x="533" y="12" width="7" height="7" fill="#e11d33" opacity="0.83"/><rect x="541" y="12" width="7" height="7" fill="#e11d33" opacity="0.7"/><rect x="565" y="12" width="7" height="7" fill="#e11d33" opacity="0.83"/><rect x="581" y="12" width="7" height="7" fill="#e11d33" opacity="0.42"/><rect x="621" y="12" width="7" height="7" fill="#ff3a52" opacity="0.8"/><rect class="f2" x="629" y="12" width="7" height="7" fill="#3a1a22" opacity="0.32"/><rect x="645" y="12" width="7" height="7" fill="#d4132b" opacity="0.75"/><rect x="693" y="12" width="7" height="7" fill="#3a1a22" opacity="0.56"/><rect class="f2" x="741" y="12" width="7" height="7" fill="#e11d33" opacity="0.89"/><rect class="f1" x="757" y="12" width="7" height="7" fill="#3a1a22" opacity="0.81"/><rect x="789" y="12" width="7" height="7" fill="#e11d33" opacity="0.83"/><rect class="f3" x="813" y="12" width="7" height="7" fill="#e11d33" opacity="0.69"/><rect x="821" y="12" width="7" height="7" fill="#ff3a52" opacity="0.71"/><rect class="f3" x="877" y="12" width="7" height="7" fill="#7a1035" opacity="0.74"/><rect x="885" y="12" width="7" height="7" fill="#3a1a22" opacity="0.39"/><rect x="917" y="12" width="7" height="7" fill="#7a1035" opacity="0.61"/><rect class="f1" x="925" y="12" width="7" height="7" fill="#e11d33" opacity="0.71"/><rect x="933" y="12" width="7" height="7" fill="#e11d33" opacity="0.34"/><rect x="941" y="12" width="7" height="7" fill="#ff3a52" opacity="0.69"/><rect x="949" y="12" width="7" height="7" fill="#d4132b" opacity="1.0"/><rect class="f3" x="957" y="12" width="7" height="7" fill="#e11d33" opacity="0.85"/><rect x="965" y="12" width="7" height="7" fill="#7a1035" opacity="0.5"/><rect x="973" y="12" width="7" height="7" fill="#d4132b" opacity="0.57"/><rect class="f2" x="981" y="12" width="7" height="7" fill="#f4f1f2" opacity="0.55"/><rect x="989" y="12" width="7" height="7" fill="#7a1035" opacity="0.49"/><rect x="1005" y="12" width="7" height="7" fill="#d4132b" opacity="0.76"/><rect class="f2" x="1021" y="12" width="7" height="7" fill="#ff3a52" opacity="0.81"/><rect x="1029" y="12" width="7" height="7" fill="#e11d33" opacity="0.38"/><rect x="1053" y="12" width="7" height="7" fill="#e11d33" opacity="0.81"/><rect x="1061" y="12" width="7" height="7" fill="#e11d33" opacity="0.82"/><rect x="1069" y="12" width="7" height="7" fill="#7a1035" opacity="0.42"/><rect x="1085" y="12" width="7" height="7" fill="#3a1a22" opacity="0.7"/><rect x="1093" y="12" width="7" height="7" fill="#e11d33" opacity="0.54"/><rect class="f3" x="1101" y="12" width="7" height="7" fill="#e11d33" opacity="0.57"/><rect x="1109" y="12" width="7" height="7" fill="#7a1035" opacity="0.8"/><rect x="1117" y="12" width="7" height="7" fill="#e11d33" opacity="0.49"/><rect x="1125" y="12" width="7" height="7" fill="#e11d33" opacity="0.48"/><rect x="1133" y="12" width="7" height="7" fill="#ff3a52" opacity="0.95"/><rect x="1141" y="12" width="7" height="7" fill="#3a1a22" opacity="0.77"/><rect x="1149" y="12" width="7" height="7" fill="#3a1a22" opacity="0.96"/><rect x="1157" y="12" width="7" height="7" fill="#ff3a52" opacity="0.94"/><rect class="f1" x="1165" y="12" width="7" height="7" fill="#e11d33" opacity="0.39"/><rect x="1181" y="12" width="7" height="7" fill="#f4f1f2" opacity="0.96"/><rect x="253" y="20" width="7" height="7" fill="#d4132b" opacity="0.66"/><rect x="429" y="20" width="7" height="7" fill="#3a1a22" opacity="0.58"/><rect x="485" y="20" width="7" height="7" fill="#e11d33" opacity="0.94"/><rect x="613" y="20" width="7" height="7" fill="#d4132b" opacity="0.63"/><rect class="f2" x="645" y="20" width="7" height="7" fill="#f4f1f2" opacity="0.37"/><rect x="709" y="20" width="7" height="7" fill="#3a1a22" opacity="0.65"/><rect x="725" y="20" width="7" height="7" fill="#d4132b" opacity="0.35"/><rect x="749" y="20" width="7" height="7" fill="#d4132b" opacity="0.94"/><rect x="781" y="20" width="7" height="7" fill="#e11d33" opacity="0.65"/><rect x="797" y="20" width="7" height="7" fill="#e11d33" opacity="0.47"/><rect x="813" y="20" width="7" height="7" fill="#ff3a52" opacity="0.58"/><rect x="829" y="20" width="7" height="7" fill="#7a1035" opacity="0.52"/><rect x="853" y="20" width="7" height="7" fill="#e11d33" opacity="0.77"/><rect x="861" y="20" width="7" height="7" fill="#ff3a52" opacity="0.81"/><rect x="877" y="20" width="7" height="7" fill="#3a1a22" opacity="0.71"/><rect x="885" y="20" width="7" height="7" fill="#e11d33" opacity="0.63"/><rect x="909" y="20" width="7" height="7" fill="#e11d33" opacity="0.58"/><rect class="f1" x="917" y="20" width="7" height="7" fill="#d4132b" opacity="0.53"/><rect x="925" y="20" width="7" height="7" fill="#d4132b" opacity="0.93"/><rect x="941" y="20" width="7" height="7" fill="#ff3a52" opacity="0.84"/><rect x="949" y="20" width="7" height="7" fill="#ff3a52" opacity="0.5"/><rect x="957" y="20" width="7" height="7" fill="#7a1035" opacity="0.69"/><rect x="973" y="20" width="7" height="7" fill="#e11d33" opacity="0.56"/><rect class="f3" x="981" y="20" width="7" height="7" fill="#e11d33" opacity="0.52"/><rect x="997" y="20" width="7" height="7" fill="#e11d33" opacity="0.54"/><rect class="f1" x="1005" y="20" width="7" height="7" fill="#d4132b" opacity="0.43"/><rect x="1013" y="20" width="7" height="7" fill="#3a1a22" opacity="0.55"/><rect x="1021" y="20" width="7" height="7" fill="#e11d33" opacity="0.74"/><rect x="1037" y="20" width="7" height="7" fill="#ff3a52" opacity="0.54"/><rect x="1045" y="20" width="7" height="7" fill="#e11d33" opacity="0.49"/><rect x="1061" y="20" width="7" height="7" fill="#7a1035" opacity="0.48"/><rect x="1069" y="20" width="7" height="7" fill="#ff3a52" opacity="0.55"/><rect x="1077" y="20" width="7" height="7" fill="#f4f1f2" opacity="0.93"/><rect x="1093" y="20" width="7" height="7" fill="#7a1035" opacity="0.95"/><rect x="1101" y="20" width="7" height="7" fill="#e11d33" opacity="0.72"/><rect x="1109" y="20" width="7" height="7" fill="#f4f1f2" opacity="0.92"/><rect x="1125" y="20" width="7" height="7" fill="#e11d33" opacity="0.49"/><rect x="1133" y="20" width="7" height="7" fill="#3a1a22" opacity="0.37"/><rect x="1141" y="20" width="7" height="7" fill="#e11d33" opacity="0.81"/><rect x="1157" y="20" width="7" height="7" fill="#3a1a22" opacity="0.7"/><rect class="f2" x="1165" y="20" width="7" height="7" fill="#d4132b" opacity="0.38"/><rect x="1173" y="20" width="7" height="7" fill="#ff3a52" opacity="0.6"/><rect x="1181" y="20" width="7" height="7" fill="#e11d33" opacity="0.77"/><rect x="1189" y="20" width="7" height="7" fill="#e11d33" opacity="0.35"/><rect x="309" y="28" width="7" height="7" fill="#7a1035" opacity="0.69"/><rect class="f1" x="325" y="28" width="7" height="7" fill="#d4132b" opacity="0.96"/><rect x="413" y="28" width="7" height="7" fill="#3a1a22" opacity="0.78"/><rect x="421" y="28" width="7" height="7" fill="#3a1a22" opacity="0.77"/><rect class="f3" x="445" y="28" width="7" height="7" fill="#7a1035" opacity="0.6"/><rect x="517" y="28" width="7" height="7" fill="#3a1a22" opacity="0.33"/><rect x="597" y="28" width="7" height="7" fill="#e11d33" opacity="0.48"/><rect x="613" y="28" width="7" height="7" fill="#3a1a22" opacity="0.63"/><rect x="621" y="28" width="7" height="7" fill="#d4132b" opacity="0.34"/><rect x="661" y="28" width="7" height="7" fill="#3a1a22" opacity="0.79"/><rect x="669" y="28" width="7" height="7" fill="#d4132b" opacity="0.83"/><rect x="685" y="28" width="7" height="7" fill="#7a1035" opacity="0.83"/><rect class="f2" x="693" y="28" width="7" height="7" fill="#d4132b" opacity="0.86"/><rect x="741" y="28" width="7" height="7" fill="#e11d33" opacity="0.59"/><rect x="749" y="28" width="7" height="7" fill="#e11d33" opacity="0.44"/><rect x="765" y="28" width="7" height="7" fill="#e11d33" opacity="0.65"/><rect x="781" y="28" width="7" height="7" fill="#3a1a22" opacity="0.68"/><rect x="813" y="28" width="7" height="7" fill="#e11d33" opacity="0.93"/><rect x="861" y="28" width="7" height="7" fill="#3a1a22" opacity="0.87"/><rect x="869" y="28" width="7" height="7" fill="#7a1035" opacity="0.45"/><rect x="893" y="28" width="7" height="7" fill="#ff3a52" opacity="0.49"/><rect x="925" y="28" width="7" height="7" fill="#3a1a22" opacity="0.74"/><rect x="933" y="28" width="7" height="7" fill="#7a1035" opacity="0.36"/><rect x="957" y="28" width="7" height="7" fill="#f4f1f2" opacity="0.91"/><rect x="981" y="28" width="7" height="7" fill="#3a1a22" opacity="0.93"/><rect x="997" y="28" width="7" height="7" fill="#7a1035" opacity="0.54"/><rect x="1021" y="28" width="7" height="7" fill="#e11d33" opacity="0.99"/><rect x="1037" y="28" width="7" height="7" fill="#d4132b" opacity="0.78"/><rect x="1053" y="28" width="7" height="7" fill="#7a1035" opacity="0.71"/><rect x="1069" y="28" width="7" height="7" fill="#e11d33" opacity="0.89"/><rect x="1077" y="28" width="7" height="7" fill="#e11d33" opacity="0.54"/><rect class="f3" x="1101" y="28" width="7" height="7" fill="#e11d33" opacity="0.58"/><rect x="1109" y="28" width="7" height="7" fill="#ff3a52" opacity="0.58"/><rect class="f2" x="1117" y="28" width="7" height="7" fill="#e11d33" opacity="0.5"/><rect x="1125" y="28" width="7" height="7" fill="#3a1a22" opacity="1.0"/><rect x="1133" y="28" width="7" height="7" fill="#d4132b" opacity="0.88"/><rect class="f1" x="1141" y="28" width="7" height="7" fill="#7a1035" opacity="0.9"/><rect x="1149" y="28" width="7" height="7" fill="#e11d33" opacity="0.71"/><rect x="1165" y="28" width="7" height="7" fill="#d4132b" opacity="0.34"/><rect class="f1" x="1173" y="28" width="7" height="7" fill="#3a1a22" opacity="0.33"/><rect x="1181" y="28" width="7" height="7" fill="#d4132b" opacity="0.38"/><rect x="1189" y="28" width="7" height="7" fill="#e11d33" opacity="0.77"/><rect class="f1" x="237" y="36" width="7" height="7" fill="#ff3a52" opacity="0.57"/><rect x="245" y="36" width="7" height="7" fill="#ff3a52" opacity="0.74"/><rect class="f1" x="421" y="36" width="7" height="7" fill="#3a1a22" opacity="0.39"/><rect x="461" y="36" width="7" height="7" fill="#3a1a22" opacity="0.96"/><rect x="493" y="36" width="7" height="7" fill="#e11d33" opacity="0.79"/><rect x="501" y="36" width="7" height="7" fill="#e11d33" opacity="0.88"/><rect x="573" y="36" width="7" height="7" fill="#e11d33" opacity="0.41"/><rect x="621" y="36" width="7" height="7" fill="#3a1a22" opacity="0.31"/><rect x="669" y="36" width="7" height="7" fill="#d4132b" opacity="0.69"/><rect x="677" y="36" width="7" height="7" fill="#e11d33" opacity="0.99"/><rect class="f1" x="685" y="36" width="7" height="7" fill="#d4132b" opacity="0.71"/><rect x="717" y="36" width="7" height="7" fill="#ff3a52" opacity="0.48"/><rect x="725" y="36" width="7" height="7" fill="#d4132b" opacity="0.59"/><rect class="f3" x="733" y="36" width="7" height="7" fill="#d4132b" opacity="0.42"/><rect x="741" y="36" width="7" height="7" fill="#7a1035" opacity="0.34"/><rect x="765" y="36" width="7" height="7" fill="#ff3a52" opacity="0.63"/><rect x="773" y="36" width="7" height="7" fill="#3a1a22" opacity="0.71"/><rect x="781" y="36" width="7" height="7" fill="#e11d33" opacity="0.79"/><rect x="845" y="36" width="7" height="7" fill="#ff3a52" opacity="0.95"/><rect x="861" y="36" width="7" height="7" fill="#7a1035" opacity="0.61"/><rect x="869" y="36" width="7" height="7" fill="#7a1035" opacity="0.88"/><rect class="f2" x="901" y="36" width="7" height="7" fill="#d4132b" opacity="0.68"/><rect x="909" y="36" width="7" height="7" fill="#e11d33" opacity="0.39"/><rect x="933" y="36" width="7" height="7" fill="#e11d33" opacity="0.54"/><rect x="957" y="36" width="7" height="7" fill="#3a1a22" opacity="0.74"/><rect x="973" y="36" width="7" height="7" fill="#3a1a22" opacity="0.95"/><rect x="981" y="36" width="7" height="7" fill="#e11d33" opacity="0.66"/><rect class="f2" x="997" y="36" width="7" height="7" fill="#ff3a52" opacity="0.64"/><rect x="1005" y="36" width="7" height="7" fill="#e11d33" opacity="0.57"/><rect x="1013" y="36" width="7" height="7" fill="#d4132b" opacity="0.94"/><rect class="f3" x="1021" y="36" width="7" height="7" fill="#7a1035" opacity="0.79"/><rect x="1029" y="36" width="7" height="7" fill="#7a1035" opacity="0.83"/><rect class="f2" x="1037" y="36" width="7" height="7" fill="#3a1a22" opacity="0.3"/><rect class="f2" x="1053" y="36" width="7" height="7" fill="#7a1035" opacity="0.39"/><rect x="1077" y="36" width="7" height="7" fill="#3a1a22" opacity="0.57"/><rect x="1085" y="36" width="7" height="7" fill="#e11d33" opacity="0.96"/><rect x="1093" y="36" width="7" height="7" fill="#7a1035" opacity="0.68"/><rect x="1101" y="36" width="7" height="7" fill="#ff3a52" opacity="0.56"/><rect class="f2" x="1109" y="36" width="7" height="7" fill="#e11d33" opacity="0.79"/><rect x="1117" y="36" width="7" height="7" fill="#ff3a52" opacity="0.8"/><rect class="f1" x="1125" y="36" width="7" height="7" fill="#d4132b" opacity="0.5"/><rect x="1133" y="36" width="7" height="7" fill="#d4132b" opacity="0.31"/><rect x="1149" y="36" width="7" height="7" fill="#e11d33" opacity="0.89"/><rect x="1157" y="36" width="7" height="7" fill="#7a1035" opacity="0.75"/><rect x="1165" y="36" width="7" height="7" fill="#e11d33" opacity="0.65"/></svg>