<svg xmlns="http://www.w3.org/2000/svg" width="1200" height="56" viewBox="0 0 1200 56"><style>@keyframes a{0%,100%{opacity:.15}50%{opacity:1}}.f1{animation:a 3s infinite}.f2{animation:a 4.3s .7s infinite}.f3{animation:a 5.1s 1.9s infinite}</style><rect width="1200" height="56" fill="#0e0e12"/><rect width="6" height="56" fill="#e11d33"/><path fill="#e11d33" d="M29.9 34.4 33.9 26.9 35.1 26.9 31.1 34.5ZM32.5 36.2Q31.3 36.2 30.5 35.6Q29.6 34.9 29.2 33.6Q28.7 32.4 28.7 30.7Q28.7 29 29.2 27.7Q29.6 26.5 30.5 25.8Q31.3 25.1 32.5 25.1Q33.7 25.1 34.5 25.8Q35.4 26.5 35.8 27.7Q36.3 29 36.3 30.7Q36.3 32.4 35.8 33.6Q35.4 34.9 34.5 35.6Q33.7 36.2 32.5 36.2ZM32.5 34.8Q33.2 34.8 33.7 34.3Q34.1 33.8 34.4 32.9Q34.6 32 34.6 30.7Q34.6 29.4 34.4 28.5Q34.1 27.6 33.7 27.1Q33.2 26.6 32.5 26.6Q31.8 26.6 31.4 27.1Q30.9 27.6 30.6 28.5Q30.4 29.4 30.4 30.7Q30.4 32 30.6 32.9Q30.9 33.8 31.4 34.3Q31.8 34.8 32.5 34.8Z M43.4 36.2Q41.7 36.2 40.7 35.4Q39.8 34.6 39.7 33.2L41.3 33.1Q41.4 34 42 34.4Q42.6 34.8 43.4 34.8Q44 34.8 44.5 34.6Q45 34.4 45.3 34Q45.6 33.6 45.6 33Q45.6 32.3 45.4 31.9Q45.1 31.5 44.6 31.3Q44.1 31.1 43.4 31.1H42.6V29.7H43.4Q44 29.7 44.4 29.5Q44.8 29.4 45 29Q45.3 28.7 45.3 28.1Q45.3 27.4 44.8 27Q44.3 26.6 43.5 26.6Q42.6 26.6 42.1 27Q41.6 27.3 41.6 28L39.9 27.9Q40.1 26.6 41 25.9Q41.9 25.1 43.5 25.1Q44.5 25.1 45.3 25.5Q46.1 25.8 46.5 26.5Q46.9 27.1 46.9 28Q46.9 29 46.3 29.6Q45.7 30.2 44.5 30.4V30.2Q45.8 30.3 46.5 31.1Q47.3 31.8 47.3 33Q47.3 34 46.8 34.8Q46.3 35.5 45.4 35.9Q44.6 36.2 43.4 36.2Z"/><path fill="#f4f1f2" d="M72 38 66.5 19H71.5L75.6 34.6L74.7 34.2H77.2L76.3 34.6L80.1 19H85L79.8 38Z M88.5 38V19H93.3V38Z M105 38.5Q102.3 38.5 100.5 37.7Q98.7 36.9 97.8 35.4Q96.9 34 96.9 32.1H101.5Q101.5 32.8 101.9 33.3Q102.3 33.9 103 34.2Q103.8 34.5 105 34.5Q106 34.5 106.7 34.3Q107.4 34 107.8 33.5Q108.2 33.1 108.2 32.4Q108.2 31.6 107.5 31.1Q106.8 30.7 105.1 30.5L103.9 30.4Q100.9 30.2 99.2 28.6Q97.5 27 97.5 24.4Q97.5 22.5 98.3 21.2Q99.2 19.9 100.8 19.1Q102.4 18.4 104.5 18.4Q106.9 18.4 108.5 19.2Q110.1 20 111 21.4Q111.8 22.8 111.8 24.7H107.2Q107.2 24.1 106.8 23.6Q106.5 23.1 105.9 22.8Q105.4 22.5 104.5 22.5Q103.8 22.5 103.2 22.7Q102.7 22.9 102.4 23.4Q102.1 23.8 102.1 24.4Q102.1 25.1 102.6 25.6Q103.1 26.1 104.3 26.2L105.6 26.4Q107.7 26.5 109.3 27.3Q111 28 111.9 29.3Q112.8 30.6 112.8 32.4Q112.8 34.3 111.9 35.6Q111 37 109.2 37.8Q107.4 38.5 105 38.5Z M116.4 38V19H121.2V38Z M135.4 38.5Q132.8 38.5 130.9 37.6Q129 36.7 127.7 35.3Q126.4 33.8 125.8 32.1Q125.2 30.4 125.2 28.7V28.2Q125.2 26.4 125.8 24.6Q126.5 22.9 127.8 21.5Q129.1 20.1 131 19.3Q132.9 18.4 135.4 18.4Q137.9 18.4 139.8 19.3Q141.8 20.1 143.1 21.5Q144.4 22.9 145 24.6Q145.7 26.4 145.7 28.2V28.7Q145.7 30.4 145 32.1Q144.4 33.8 143.1 35.3Q141.9 36.7 139.9 37.6Q138 38.5 135.4 38.5ZM135.4 34Q136.7 34 137.7 33.6Q138.7 33.2 139.4 32.4Q140.1 31.7 140.4 30.7Q140.8 29.7 140.8 28.5Q140.8 27.2 140.4 26.2Q140 25.2 139.3 24.5Q138.6 23.8 137.7 23.4Q136.7 23 135.4 23Q134.2 23 133.2 23.4Q132.2 23.8 131.5 24.5Q130.8 25.2 130.4 26.2Q130.1 27.2 130.1 28.5Q130.1 29.7 130.4 30.7Q130.8 31.7 131.5 32.4Q132.2 33.2 133.2 33.6Q134.2 34 135.4 34Z M149.6 38V19H157.5L163.8 34.2H164.8L164.2 34.6V19H168.8V38H160.8L154.5 22.9H153.5L154.1 22.4V38Z"/><rect x="258" y="12" width="7" height="7" fill="#e11d33" opacity="0.52"/><rect class="f2" x="314" y="12" width="7" height="7" fill="#f4f1f2" opacity="0.64"/><rect x="530" y="12" width="7" height="7" fill="#d4132b" opacity="0.76"/><rect x="554" y="12" width="7" height="7" fill="#ff3a52" opacity="0.82"/><rect class="f2" x="634" y="12" width="7" height="7" fill="#e11d33" opacity="0.96"/><rect x="650" y="12" width="7" height="7" fill="#ff3a52" opacity="0.85"/><rect class="f1" x="682" y="12" width="7" height="7" fill="#ff3a52" opacity="0.52"/><rect x="690" y="12" width="7" height="7" fill="#e11d33" opacity="0.38"/><rect x="698" y="12" width="7" height="7" fill="#7a1035" opacity="0.88"/><rect x="706" y="12" width="7" height="7" fill="#ff3a52" opacity="0.49"/><rect x="714" y="12" width="7" height="7" fill="#e11d33" opacity="0.3"/><rect x="802" y="12" width="7" height="7" fill="#7a1035" opacity="0.68"/><rect x="810" y="12" width="7" height="7" fill="#3a1a22" opacity="0.4"/><rect x="826" y="12" width="7" height="7" fill="#ff3a52" opacity="0.51"/><rect x="834" y="12" width="7" height="7" fill="#d4132b" opacity="0.74"/><rect x="858" y="12" width="7" height="7" fill="#ff3a52" opacity="0.76"/><rect x="866" y="12" width="7" height="7" fill="#e11d33" opacity="0.73"/><rect class="f1" x="882" y="12" width="7" height="7" fill="#e11d33" opacity="0.95"/><rect x="890" y="12" width="7" height="7" fill="#ff3a52" opacity="1.0"/><rect x="922" y="12" width="7" height="7" fill="#d4132b" opacity="0.49"/><rect x="938" y="12" width="7" height="7" fill="#7a1035" opacity="0.95"/><rect x="946" y="12" width="7" height="7" fill="#7a1035" opacity="0.86"/><rect x="954" y="12" width="7" height="7" fill="#e11d33" opacity="0.78"/><rect class="f3" x="962" y="12" width="7" height="7" fill="#3a1a22" opacity="0.89"/><rect x="970" y="12" width="7" height="7" fill="#3a1a22" opacity="0.33"/><rect x="978" y="12" width="7" height="7" fill="#ff3a52" opacity="0.5"/><rect x="1002" y="12" width="7" height="7" fill="#ff3a52" opacity="0.52"/><rect x="1010" y="12" width="7" height="7" fill="#f4f1f2" opacity="0.76"/><rect class="f2" x="1042" y="12" width="7" height="7" fill="#e11d33" opacity="0.97"/><rect x="1050" y="12" width="7" height="7" fill="#d4132b" opacity="0.32"/><rect x="1066" y="12" width="7" height="7" fill="#3a1a22" opacity="0.98"/><rect class="f3" x="1082" y="12" width="7" height="7" fill="#e11d33" opacity="0.63"/><rect x="1090" y="12" width="7" height="7" fill="#7a1035" opacity="0.58"/><rect x="1098" y="12" width="7" height="7" fill="#3a1a22" opacity="0.91"/><rect class="f3" x="1106" y="12" width="7" height="7" fill="#3a1a22" opacity="0.42"/><rect x="1114" y="12" width="7" height="7" fill="#e11d33" opacity="0.91"/><rect x="1122" y="12" width="7" height="7" fill="#ff3a52" opacity="0.81"/><rect x="1130" y="12" width="7" height="7" fill="#e11d33" opacity="0.39"/><rect x="1138" y="12" width="7" height="7" fill="#7a1035" opacity="0.57"/><rect x="1146" y="12" width="7" height="7" fill="#ff3a52" opacity="0.79"/><rect x="1162" y="12" width="7" height="7" fill="#3a1a22" opacity="0.51"/><rect class="f1" x="1170" y="12" width="7" height="7" fill="#3a1a22" opacity="0.57"/><rect x="1178" y="12" width="7" height="7" fill="#f4f1f2" opacity="0.86"/><rect x="1186" y="12" width="7" height="7" fill="#ff3a52" opacity="0.72"/><rect x="490" y="20" width="7" height="7" fill="#d4132b" opacity="0.8"/><rect x="530" y="20" width="7" height="7" fill="#ff3a52" opacity="0.63"/><rect class="f1" x="554" y="20" width="7" height="7" fill="#ff3a52" opacity="0.63"/><rect x="610" y="20" width="7" height="7" fill="#d4132b" opacity="0.83"/><rect x="626" y="20" width="7" height="7" fill="#7a1035" opacity="0.45"/><rect x="650" y="20" width="7" height="7" fill="#f4f1f2" opacity="0.69"/><rect x="674" y="20" width="7" height="7" fill="#d4132b" opacity="0.44"/><rect x="706" y="20" width="7" height="7" fill="#ff3a52" opacity="0.99"/><rect x="786" y="20" width="7" height="7" fill="#7a1035" opacity="0.54"/><rect x="794" y="20" width="7" height="7" fill="#e11d33" opacity="0.87"/><rect x="826" y="20" width="7" height="7" fill="#3a1a22" opacity="0.98"/><rect class="f1" x="834" y="20" width="7" height="7" fill="#7a1035" opacity="0.65"/><rect x="850" y="20" width="7" height="7" fill="#f4f1f2" opacity="0.83"/><rect x="914" y="20" width="7" height="7" fill="#3a1a22" opacity="0.68"/><rect x="930" y="20" width="7" height="7" fill="#d4132b" opacity="0.46"/><rect x="970" y="20" width="7" height="7" fill="#d4132b" opacity="0.76"/><rect x="978" y="20" width="7" height="7" fill="#d4132b" opacity="0.39"/><rect class="f1" x="1002" y="20" width="7" height="7" fill="#7a1035" opacity="0.35"/><rect x="1018" y="20" width="7" height="7" fill="#f4f1f2" opacity="0.73"/><rect x="1026" y="20" width="7" height="7" fill="#7a1035" opacity="0.96"/><rect x="1058" y="20" width="7" height="7" fill="#3a1a22" opacity="1.0"/><rect x="1066" y="20" width="7" height="7" fill="#3a1a22" opacity="0.47"/><rect x="1074" y="20" width="7" height="7" fill="#d4132b" opacity="0.93"/><rect x="1082" y="20" width="7" height="7" fill="#7a1035" opacity="0.81"/><rect class="f1" x="1090" y="20" width="7" height="7" fill="#f4f1f2" opacity="0.85"/><rect x="1106" y="20" width="7" height="7" fill="#e11d33" opacity="0.41"/><rect x="1114" y="20" width="7" height="7" fill="#d4132b" opacity="0.44"/><rect x="1130" y="20" width="7" height="7" fill="#7a1035" opacity="0.73"/><rect x="1154" y="20" width="7" height="7" fill="#3a1a22" opacity="0.48"/><rect class="f1" x="1170" y="20" width="7" height="7" fill="#3a1a22" opacity="0.85"/><rect class="f3" x="1178" y="20" width="7" height="7" fill="#3a1a22" opacity="0.91"/><rect x="1186" y="20" width="7" height="7" fill="#ff3a52" opacity="0.4"/><rect x="282" y="28" width="7" height="7" fill="#3a1a22" opacity="0.52"/><rect x="530" y="28" width="7" height="7" fill="#e11d33" opacity="0.65"/><rect x="586" y="28" width="7" height="7" fill="#3a1a22" opacity="0.41"/><rect x="594" y="28" width="7" height="7" fill="#ff3a52" opacity="0.69"/><rect x="634" y="28" width="7" height="7" fill="#d4132b" opacity="0.52"/><rect x="642" y="28" width="7" height="7" fill="#d4132b" opacity="0.47"/><rect x="706" y="28" width="7" height="7" fill="#7a1035" opacity="0.37"/><rect x="730" y="28" width="7" height="7" fill="#3a1a22" opacity="0.97"/><rect x="738" y="28" width="7" height="7" fill="#ff3a52" opacity="0.57"/><rect x="770" y="28" width="7" height="7" fill="#e11d33" opacity="0.92"/><rect class="f1" x="778" y="28" width="7" height="7" fill="#e11d33" opacity="0.57"/><rect x="794" y="28" width="7" height="7" fill="#e11d33" opacity="0.87"/><rect class="f1" x="818" y="28" width="7" height="7" fill="#ff3a52" opacity="0.83"/><rect x="826" y="28" width="7" height="7" fill="#e11d33" opacity="0.75"/><rect class="f3" x="834" y="28" width="7" height="7" fill="#3a1a22" opacity="0.4"/><rect class="f2" x="866" y="28" width="7" height="7" fill="#e11d33" opacity="0.94"/><rect x="898" y="28" width="7" height="7" fill="#ff3a52" opacity="0.9"/><rect x="922" y="28" width="7" height="7" fill="#e11d33" opacity="0.76"/><rect x="930" y="28" width="7" height="7" fill="#3a1a22" opacity="0.57"/><rect x="954" y="28" width="7" height="7" fill="#e11d33" opacity="0.49"/><rect x="962" y="28" width="7" height="7" fill="#d4132b" opacity="0.74"/><rect x="970" y="28" width="7" height="7" fill="#3a1a22" opacity="0.66"/><rect x="1010" y="28" width="7" height="7" fill="#3a1a22" opacity="0.48"/><rect x="1026" y="28" width="7" height="7" fill="#3a1a22" opacity="0.62"/><rect x="1042" y="28" width="7" height="7" fill="#7a1035" opacity="0.37"/><rect x="1058" y="28" width="7" height="7" fill="#ff3a52" opacity="0.76"/><rect class="f2" x="1066" y="28" width="7" height="7" fill="#e11d33" opacity="0.46"/><rect x="1074" y="28" width="7" height="7" fill="#d4132b" opacity="0.63"/><rect x="1082" y="28" width="7" height="7" fill="#d4132b" opacity="0.59"/><rect x="1090" y="28" width="7" height="7" fill="#e11d33" opacity="0.66"/><rect class="f1" x="1098" y="28" width="7" height="7" fill="#ff3a52" opacity="0.82"/><rect x="1106" y="28" width="7" height="7" fill="#ff3a52" opacity="0.84"/><rect x="1114" y="28" width="7" height="7" fill="#3a1a22" opacity="0.38"/><rect x="1122" y="28" width="7" height="7" fill="#e11d33" opacity="0.84"/><rect x="1130" y="28" width="7" height="7" fill="#e11d33" opacity="0.54"/><rect x="1138" y="28" width="7" height="7" fill="#d4132b" opacity="0.94"/><rect x="1146" y="28" width="7" height="7" fill="#e11d33" opacity="0.64"/><rect x="1154" y="28" width="7" height="7" fill="#3a1a22" opacity="0.42"/><rect x="1162" y="28" width="7" height="7" fill="#ff3a52" opacity="0.97"/><rect x="1170" y="28" width="7" height="7" fill="#ff3a52" opacity="0.73"/><rect x="1186" y="28" width="7" height="7" fill="#3a1a22" opacity="0.45"/><rect x="242" y="36" width="7" height="7" fill="#e11d33" opacity="0.65"/><rect x="362" y="36" width="7" height="7" fill="#ff3a52" opacity="0.57"/><rect class="f2" x="378" y="36" width="7" height="7" fill="#e11d33" opacity="0.65"/><rect x="530" y="36" width="7" height="7" fill="#d4132b" opacity="0.74"/><rect class="f2" x="538" y="36" width="7" height="7" fill="#e11d33" opacity="0.61"/><rect x="546" y="36" width="7" height="7" fill="#ff3a52" opacity="0.45"/><rect x="658" y="36" width="7" height="7" fill="#e11d33" opacity="0.52"/><rect x="674" y="36" width="7" height="7" fill="#f4f1f2" opacity="0.95"/><rect x="706" y="36" width="7" height="7" fill="#7a1035" opacity="0.39"/><rect x="722" y="36" width="7" height="7" fill="#ff3a52" opacity="0.75"/><rect x="738" y="36" width="7" height="7" fill="#d4132b" opacity="0.62"/><rect x="778" y="36" width="7" height="7" fill="#ff3a52" opacity="0.73"/><rect x="786" y="36" width="7" height="7" fill="#f4f1f2" opacity="0.79"/><rect x="794" y="36" width="7" height="7" fill="#7a1035" opacity="0.52"/><rect x="810" y="36" width="7" height="7" fill="#7a1035" opacity="0.62"/><rect x="826" y="36" width="7" height="7" fill="#3a1a22" opacity="0.4"/><rect x="834" y="36" width="7" height="7" fill="#e11d33" opacity="0.91"/><rect x="850" y="36" width="7" height="7" fill="#d4132b" opacity="0.57"/><rect class="f2" x="866" y="36" width="7" height="7" fill="#3a1a22" opacity="0.53"/><rect x="898" y="36" width="7" height="7" fill="#3a1a22" opacity="0.36"/><rect x="906" y="36" width="7" height="7" fill="#e11d33" opacity="0.95"/><rect x="930" y="36" width="7" height="7" fill="#f4f1f2" opacity="0.55"/><rect x="938" y="36" width="7" height="7" fill="#e11d33" opacity="0.46"/><rect x="946" y="36" width="7" height="7" fill="#e11d33" opacity="0.45"/><rect x="954" y="36" width="7" height="7" fill="#e11d33" opacity="0.43"/><rect x="970" y="36" width="7" height="7" fill="#e11d33" opacity="0.99"/><rect class="f3" x="986" y="36" width="7" height="7" fill="#e11d33" opacity="0.89"/><rect x="994" y="36" width="7" height="7" fill="#e11d33" opacity="0.36"/><rect x="1010" y="36" width="7" height="7" fill="#ff3a52" opacity="0.83"/><rect x="1026" y="36" width="7" height="7" fill="#e11d33" opacity="0.52"/><rect x="1034" y="36" width="7" height="7" fill="#d4132b" opacity="0.82"/><rect class="f3" x="1050" y="36" width="7" height="7" fill="#e11d33" opacity="0.61"/><rect x="1058" y="36" width="7" height="7" fill="#e11d33" opacity="0.55"/><rect x="1074" y="36" width="7" height="7" fill="#e11d33" opacity="0.67"/><rect x="1082" y="36" width="7" height="7" fill="#d4132b" opacity="0.68"/><rect x="1090" y="36" width="7" height="7" fill="#3a1a22" opacity="0.31"/><rect x="1098" y="36" width="7" height="7" fill="#3a1a22" opacity="0.69"/><rect x="1114" y="36" width="7" height="7" fill="#7a1035" opacity="0.52"/><rect x="1122" y="36" width="7" height="7" fill="#d4132b" opacity="0.6"/><rect class="f1" x="1138" y="36" width="7" height="7" fill="#e11d33" opacity="1.0"/><rect class="f2" x="1146" y="36" width="7" height="7" fill="#d4132b" opacity="0.54"/><rect x="1154" y="36" width="7" height="7" fill="#e11d33" opacity="0.51"/><rect x="1162" y="36" width="7" height="7" fill="#e11d33" opacity="0.61"/><rect x="1170" y="36" width="7" height="7" fill="#e11d33" opacity="0.85"/><rect x="1178" y="36" width="7" height="7" fill="#d4132b" opacity="0.35"/><rect x="1186" y="36" width="7" height="7" fill="#ff3a52" opacity="0.7"/></svg>